%FSLAX25Y25*%
%MOIN*%
G04 EasyPC Gerber Version 18.0.6 Build 3620 *
%ADD71C,0.00100*%
%ADD70C,0.00500*%
%ADD84C,0.01200*%
X0Y0D02*
D02*
D70*
X21314Y166163D02*
Y150163D01*
X28314*
Y166163*
X21314*
X28314Y170563D02*
Y186563D01*
X21314*
Y170563*
X28314*
X33214Y165650D02*
Y161900D01*
X36339*
X38214D02*
Y165650D01*
X41339*
X40714Y163776D02*
X38214D01*
Y161900D02*
X41339D01*
X43214D02*
Y165650D01*
X45089*
X45714Y165338*
X46026Y165026*
X46339Y164400*
Y163150*
X46026Y162526*
X45714Y162213*
X45089Y161900*
X43214*
X48526Y162213D02*
X49151Y161900D01*
X49776*
X50401Y162213*
X50714Y162838*
X50401Y163463*
X49776Y163776*
X49151*
X49776D02*
X50401Y164088D01*
X50714Y164713*
X50401Y165338*
X49776Y165650*
X49151*
X48526Y165338*
X33614Y181900D02*
Y185650D01*
X35801*
X36426Y185338*
X36739Y184713*
X36426Y184088*
X35801Y183776*
X33614*
X35801D02*
X36739Y181900D01*
X39239D02*
X40489D01*
X39864D02*
Y185650D01*
X39239Y185026*
X44551Y183776D02*
X45176D01*
X45801Y184088*
X46114Y184713*
X45801Y185338*
X45176Y185650*
X44551*
X43926Y185338*
X43614Y184713*
X43926Y184088*
X44551Y183776*
X43926Y183463*
X43614Y182838*
X43926Y182213*
X44551Y181900*
X45176*
X45801Y182213*
X46114Y182838*
X45801Y183463*
X45176Y183776*
X34587Y219219D02*
X34900Y218906D01*
X35524Y218593*
X36150Y218906*
X36462Y219219*
Y222343*
X37087*
X36462D02*
X35212D01*
X40212Y218593D02*
X41462D01*
X40837D02*
Y222343D01*
X40212Y221719*
X74518Y162791D02*
X74831Y162479D01*
X75456Y162166*
X76081Y162479*
X76393Y162791*
Y165916*
X77018*
X76393D02*
X75143D01*
X82018Y162166D02*
X79518D01*
X81706Y164354*
X82018Y164979*
X81706Y165604*
X81081Y165916*
X80143*
X79518Y165604*
X115214Y52750D02*
Y49000D01*
X118339*
X120214D02*
Y52750D01*
X123339*
X122714Y50876D02*
X120214D01*
Y49000D02*
X123339D01*
X125214D02*
Y52750D01*
X127089*
X127714Y52438*
X128026Y52126*
X128339Y51500*
Y50250*
X128026Y49626*
X127714Y49313*
X127089Y49000*
X125214*
X131776D02*
Y52750D01*
X130214Y50250*
X132714*
X117214Y98300D02*
Y102050D01*
X119401*
X120026Y101738*
X120339Y101113*
X120026Y100488*
X119401Y100176*
X117214*
X119401D02*
X120339Y98300D01*
X122839D02*
X124089D01*
X123464D02*
Y102050D01*
X122839Y101426*
X128151Y98300D02*
X128776Y98613D01*
X129401Y99238*
X129714Y100176*
Y101113*
X129401Y101738*
X128776Y102050*
X128151*
X127526Y101738*
X127214Y101113*
X127526Y100488*
X128151Y100176*
X128776*
X129401Y100488*
X129714Y101113*
X119714Y76463D02*
Y60463D01*
X126714*
Y76463*
X119714*
X126714Y80463D02*
Y96463D01*
X119714*
Y80463*
X126714*
X238337Y161541D02*
X238650Y161229D01*
X239274Y160916*
X239900Y161229*
X240212Y161541*
Y164666*
X240837*
X240212D02*
X238962D01*
X243650Y161229D02*
X244274Y160916D01*
X244900*
X245524Y161229*
X245837Y161854*
X245524Y162479*
X244900Y162791*
X244274*
X244900D02*
X245524Y163104D01*
X245837Y163729*
X245524Y164354*
X244900Y164666*
X244274*
X243650Y164354*
D02*
D71*
X35550Y4815D02*
X35302Y5931D01*
X34930Y5683*
X34434Y5187*
X34062Y5683*
X34434Y6055*
X35054Y6427*
X34434Y6675*
X34062Y6923*
X34434Y7419*
X35054Y6923*
X35302Y6675*
X35550Y7791*
X36170Y7543*
X35922Y6923*
X35674Y6551*
X36418Y6675*
X36914*
Y6055*
X35798Y6179*
X35674*
X36170Y5063*
X35550Y4815*
X35534Y4883D02*
X35721D01*
X35514Y4977D02*
X35955D01*
X35493Y5071D02*
X36166D01*
X35472Y5165D02*
X36124D01*
X34380Y5258D02*
X34505D01*
X35451D02*
X36083D01*
X34310Y5352D02*
X34599D01*
X35430D02*
X36041D01*
X34240Y5446D02*
X34693D01*
X35410D02*
X36000D01*
X34170Y5539D02*
X34786D01*
X35389D02*
X35958D01*
X34099Y5633D02*
X34880D01*
X35368D02*
X35916D01*
X34106Y5727D02*
X34995D01*
X35347D02*
X35875D01*
X34199Y5820D02*
X35136D01*
X35326D02*
X35833D01*
X34293Y5914D02*
X35276D01*
X35306D02*
X35791D01*
X34387Y6008D02*
X35750D01*
X34511Y6102D02*
X35708D01*
X36496D02*
X36914D01*
X34667Y6195D02*
X36914D01*
X34824Y6289D02*
X36914D01*
X34980Y6383D02*
X36914D01*
X34931Y6476D02*
X36914D01*
X34696Y6570D02*
X35686D01*
X35787D02*
X36914D01*
X34461Y6664D02*
X35749D01*
X36351D02*
X36914D01*
X34310Y6757D02*
X35219D01*
X35320D02*
X35811D01*
X34169Y6851D02*
X35126D01*
X35341D02*
X35874D01*
X34078Y6945D02*
X35026D01*
X35362D02*
X35930D01*
X34149Y7039D02*
X34909D01*
X35383D02*
X35968D01*
X34219Y7132D02*
X34792D01*
X35404D02*
X36006D01*
X34289Y7226D02*
X34675D01*
X35424D02*
X36043D01*
X34359Y7320D02*
X34558D01*
X35445D02*
X36080D01*
X34430Y7413D02*
X34441D01*
X35466D02*
X36118D01*
X35487Y7507D02*
X36156D01*
X35507Y7601D02*
X36025D01*
X35528Y7694D02*
X35791D01*
X35549Y7788D02*
X35557D01*
X36398Y196593D02*
X36162Y197656D01*
X35807Y197420*
X35335Y196947*
X34981Y197420*
X35335Y197774*
X35926Y198128*
X35335Y198365*
X34981Y198601*
X35335Y199073*
X35926Y198601*
X36162Y198365*
X36398Y199428*
X36989Y199191*
X36752Y198601*
X36516Y198246*
X37225Y198365*
X37697*
Y197774*
X36634Y197892*
X36516*
X36989Y196829*
X36398Y196593*
X36397Y196596D02*
X36406D01*
X36376Y196690D02*
X36640D01*
X36356Y196783D02*
X36874D01*
X36335Y196877D02*
X36967D01*
X35317Y196971D02*
X35359D01*
X36314D02*
X36926D01*
X35247Y197065D02*
X35452D01*
X36293D02*
X36884D01*
X35177Y197158D02*
X35546D01*
X36272D02*
X36842D01*
X35106Y197252D02*
X35640D01*
X36252D02*
X36801D01*
X35036Y197346D02*
X35733D01*
X36231D02*
X36759D01*
X35000Y197439D02*
X35837D01*
X36210D02*
X36717D01*
X35094Y197533D02*
X35978D01*
X36189D02*
X36676D01*
X35188Y197627D02*
X36118D01*
X36168D02*
X36634D01*
X35281Y197720D02*
X36593D01*
X35402Y197814D02*
X36551D01*
X37336D02*
X37697D01*
X35558Y197908D02*
X37697D01*
X35714Y198002D02*
X37697D01*
X35870Y198095D02*
X37697D01*
X35774Y198189D02*
X37697D01*
X35540Y198283D02*
X36540D01*
X36733D02*
X37697D01*
X35317Y198376D02*
X36150D01*
X36165D02*
X36603D01*
X35177Y198470D02*
X36056D01*
X36185D02*
X36665D01*
X35036Y198564D02*
X35963D01*
X36206D02*
X36728D01*
X35023Y198657D02*
X35855D01*
X36227D02*
X36775D01*
X35094Y198751D02*
X35738D01*
X36248D02*
X36813D01*
X35164Y198845D02*
X35620D01*
X36269D02*
X36850D01*
X35234Y198939D02*
X35504D01*
X36289D02*
X36887D01*
X35304Y199032D02*
X35386D01*
X36310D02*
X36925D01*
X36331Y199126D02*
X36963D01*
X36352Y199220D02*
X36918D01*
X36373Y199313D02*
X36683D01*
X36393Y199407D02*
X36449D01*
X146224Y90173D02*
X146584Y89993D01*
X146854Y89723*
X147034Y89363*
X147124Y89003*
X147034Y88373*
X146674Y87923*
X146134Y87563*
X145504Y87473*
X144874Y87563*
X144424Y87833*
X144064Y88283*
X143884Y88823*
X144514Y88913*
X144604Y88463*
X144874Y88193*
X145144Y88013*
X145504Y87923*
X145864Y88013*
X146224Y88193*
X146404Y88553*
X146494Y88913*
X146404Y89273*
X146224Y89633*
X145864Y89813*
X145504Y89903*
X145054Y89813*
X145144Y90353*
X145504*
X145864Y90443*
X146134Y90713*
X146224Y91163*
X146134Y91523*
X145954Y91793*
X145774Y91883*
X145414Y91973*
X145144Y91883*
X144874Y91703*
X144694Y91433*
X144604Y91073*
X143974Y91163*
X144154Y91703*
X144514Y92063*
X144964Y92333*
X145414Y92423*
X145954Y92333*
X146494Y92063*
X146764Y91613*
X146854Y91163*
X146674Y90533*
X146224Y90173*
X149284Y92423D02*
X147844Y87473D01*
X147394*
X148834Y92423*
X149284*
X152704Y87563D02*
X149464D01*
X149554Y87923*
X149734Y88283*
X150184Y88733*
X150814Y89363*
X151714Y90173*
X151984Y90623*
X152074Y91073*
X151984Y91433*
X151804Y91703*
X151534Y91883*
X151174Y91973*
X150814Y91883*
X150454Y91703*
X150274Y91433*
X150184Y90983*
X149554Y91073*
X149734Y91613*
X150094Y92063*
X150544Y92333*
X151174Y92423*
X151804Y92333*
X152344Y91973*
X152614Y91523*
X152704Y91073*
X152614Y90533*
X152344Y90083*
X151894Y89453*
X150994Y88733*
X150544Y88283*
X150274Y88013*
X152704*
Y87563*
X155944Y89813D02*
X155494Y89363D01*
X155134Y89183*
X154774*
X154234Y89273*
X153784Y89633*
X153424Y90083*
X153334Y90803*
X153424Y91433*
X153784Y91973*
X154234Y92333*
X154864Y92423*
X155494Y92243*
X156034Y91883*
X156304Y91613*
X156484Y91163*
X156574Y90713*
Y90083*
X156484Y88913*
X156124Y88103*
X155584Y87653*
X154774Y87473*
X154324Y87563*
X153874Y87743*
X153604Y88103*
X153424Y88643*
X154054Y88733*
X154144Y88373*
X154324Y88103*
X154504Y87923*
X154864*
X155314Y88013*
X155674Y88463*
X155854Y89003*
X155944Y89813*
X154954Y89633D02*
X155314Y89723D01*
X155584Y89993*
X155764Y90353*
X155854Y90803*
X155764Y91253*
X155584Y91613*
X155314Y91883*
X154954Y91973*
X154594Y91883*
X154234Y91613*
X154054Y91163*
X153964Y90713*
X154054Y90263*
X154234Y89903*
X154594Y89723*
X154954Y89633*
X158734Y92423D02*
X157294Y87473D01*
X156844*
X158284Y92423*
X158734*
X161344Y87563D02*
X160714D01*
Y91343*
X160174Y90983*
X159544Y90623*
Y91073*
X160444Y91613*
X160984Y92333*
X161344*
Y87563*
X163594Y90533D02*
X164044Y90713D01*
X164584Y90803*
X165124Y90713*
X165574Y90353*
X165934Y89813*
X166024Y89183*
X165934Y88553*
X165574Y88013*
X165034Y87563*
X164314Y87473*
X163774Y87563*
X163324Y87833*
X162964Y88283*
X162784Y88823*
X163414Y88913*
X163504Y88463*
X163774Y88193*
X164044Y88013*
X164404Y87923*
X164764Y88013*
X165124Y88283*
X165304Y88643*
X165394Y89183*
X165304Y89633*
X165124Y89993*
X164764Y90263*
X164404Y90353*
X163864Y90263*
X163504Y89903*
X162874Y89993*
X163324Y92333*
X165844*
Y91883*
X163864*
X163594Y90533*
X145011Y87543D02*
X145996D01*
X147414D02*
X147864D01*
X154422D02*
X155090D01*
X156864D02*
X157314D01*
X163892D02*
X164877D01*
X144750Y87637D02*
X146245D01*
X147441D02*
X147891D01*
X149482D02*
X152704D01*
X154139D02*
X155511D01*
X156891D02*
X157341D01*
X160714D02*
X161344D01*
X163650D02*
X165123D01*
X144594Y87731D02*
X146385D01*
X147469D02*
X147919D01*
X149506D02*
X152704D01*
X153904D02*
X155677D01*
X156919D02*
X157369D01*
X160714D02*
X161344D01*
X163494D02*
X165235D01*
X144438Y87824D02*
X146526D01*
X147496D02*
X147946D01*
X149529D02*
X152704D01*
X153813D02*
X155789D01*
X156946D02*
X157396D01*
X160714D02*
X161344D01*
X163338D02*
X165347D01*
X144356Y87918D02*
X146667D01*
X147523D02*
X147973D01*
X149553D02*
X152704D01*
X153743D02*
X155902D01*
X156973D02*
X157423D01*
X160714D02*
X161344D01*
X163256D02*
X165460D01*
X144281Y88012D02*
X145144D01*
X145861D02*
X146745D01*
X147550D02*
X148000D01*
X149598D02*
X150274D01*
X153672D02*
X154415D01*
X155313D02*
X156014D01*
X157000D02*
X157450D01*
X160714D02*
X161344D01*
X163181D02*
X164044D01*
X164762D02*
X165574D01*
X144206Y88106D02*
X145005D01*
X146049D02*
X146820D01*
X147578D02*
X148028D01*
X149645D02*
X150366D01*
X153603D02*
X154322D01*
X155388D02*
X156125D01*
X157028D02*
X157478D01*
X160714D02*
X161344D01*
X163106D02*
X163905D01*
X164887D02*
X165635D01*
X144131Y88199D02*
X144867D01*
X146227D02*
X146895D01*
X147605D02*
X148055D01*
X149692D02*
X150460D01*
X153572D02*
X154259D01*
X155463D02*
X156167D01*
X157055D02*
X157505D01*
X160714D02*
X161344D01*
X163031D02*
X163767D01*
X165012D02*
X165698D01*
X144061Y88293D02*
X144774D01*
X146274D02*
X146970D01*
X147632D02*
X148082D01*
X149744D02*
X150554D01*
X153541D02*
X154197D01*
X155538D02*
X156208D01*
X157082D02*
X157532D01*
X160714D02*
X161344D01*
X162961D02*
X163674D01*
X165129D02*
X165760D01*
X144029Y88387D02*
X144680D01*
X146320D02*
X147036D01*
X147659D02*
X148109D01*
X149837D02*
X150647D01*
X153509D02*
X154140D01*
X155613D02*
X156250D01*
X157109D02*
X157559D01*
X160714D02*
X161344D01*
X162929D02*
X163580D01*
X165176D02*
X165823D01*
X143998Y88480D02*
X144600D01*
X146367D02*
X147049D01*
X147687D02*
X148137D01*
X149931D02*
X150741D01*
X153478D02*
X154117D01*
X155680D02*
X156291D01*
X157137D02*
X157587D01*
X160714D02*
X161344D01*
X162898D02*
X163500D01*
X165222D02*
X165885D01*
X143967Y88574D02*
X144582D01*
X146409D02*
X147063D01*
X147714D02*
X148164D01*
X150025D02*
X150835D01*
X153446D02*
X154094D01*
X155711D02*
X156333D01*
X157164D02*
X157614D01*
X160714D02*
X161344D01*
X162867D02*
X163482D01*
X165269D02*
X165937D01*
X143935Y88668D02*
X144563D01*
X146433D02*
X147076D01*
X147741D02*
X148191D01*
X150119D02*
X150928D01*
X153597D02*
X154070D01*
X155742D02*
X156375D01*
X157191D02*
X157641D01*
X160714D02*
X161344D01*
X162835D02*
X163463D01*
X165308D02*
X165950D01*
X143904Y88761D02*
X144544D01*
X146456D02*
X147089D01*
X147769D02*
X148219D01*
X150212D02*
X151029D01*
X155773D02*
X156417D01*
X157219D02*
X157669D01*
X160714D02*
X161344D01*
X162804D02*
X163444D01*
X165324D02*
X165963D01*
X144109Y88855D02*
X144525D01*
X146479D02*
X147102D01*
X147796D02*
X148246D01*
X150306D02*
X151146D01*
X155804D02*
X156458D01*
X157246D02*
X157696D01*
X160714D02*
X161344D01*
X163009D02*
X163425D01*
X165339D02*
X165977D01*
X146485Y88949D02*
X147116D01*
X147823D02*
X148273D01*
X150400D02*
X151263D01*
X155836D02*
X156487D01*
X157273D02*
X157723D01*
X160714D02*
X161344D01*
X165355D02*
X165990D01*
X146461Y89043D02*
X147114D01*
X147850D02*
X148300D01*
X150493D02*
X151380D01*
X155858D02*
X156494D01*
X157300D02*
X157750D01*
X160714D02*
X161344D01*
X165370D02*
X166004D01*
X146438Y89136D02*
X147091D01*
X147878D02*
X148328D01*
X150587D02*
X151498D01*
X155869D02*
X156501D01*
X157328D02*
X157778D01*
X160714D02*
X161344D01*
X165386D02*
X166017D01*
X146415Y89230D02*
X147067D01*
X147905D02*
X148355D01*
X150681D02*
X151615D01*
X154492D02*
X155228D01*
X155879D02*
X156508D01*
X157355D02*
X157805D01*
X160714D02*
X161344D01*
X165384D02*
X166017D01*
X146378Y89324D02*
X147044D01*
X147932D02*
X148382D01*
X150774D02*
X151732D01*
X154170D02*
X155415D01*
X155889D02*
X156515D01*
X157382D02*
X157832D01*
X160714D02*
X161344D01*
X165366D02*
X166004D01*
X146331Y89417D02*
X147007D01*
X147959D02*
X148409D01*
X150874D02*
X151849D01*
X154054D02*
X155548D01*
X155900D02*
X156522D01*
X157409D02*
X157859D01*
X160714D02*
X161344D01*
X165347D02*
X165990D01*
X146285Y89511D02*
X146960D01*
X147987D02*
X148437D01*
X150978D02*
X151935D01*
X153936D02*
X155642D01*
X155910D02*
X156530D01*
X157437D02*
X157887D01*
X160714D02*
X161344D01*
X165328D02*
X165977D01*
X146238Y89605D02*
X146913D01*
X148014D02*
X148464D01*
X151082D02*
X152002D01*
X153819D02*
X155735D01*
X155920D02*
X156537D01*
X157464D02*
X157914D01*
X160714D02*
X161344D01*
X165309D02*
X165963D01*
X146093Y89698D02*
X146866D01*
X148041D02*
X148491D01*
X151187D02*
X152069D01*
X153731D02*
X154692D01*
X155216D02*
X155829D01*
X155931D02*
X156544D01*
X157491D02*
X157941D01*
X160714D02*
X161344D01*
X165271D02*
X165950D01*
X145906Y89792D02*
X146785D01*
X148069D02*
X148519D01*
X151291D02*
X152136D01*
X153657D02*
X154456D01*
X155383D02*
X155923D01*
X155941D02*
X156551D01*
X157519D02*
X157969D01*
X160714D02*
X161344D01*
X165224D02*
X165937D01*
X145066Y89886D02*
X145417D01*
X145573D02*
X146691D01*
X148096D02*
X148546D01*
X151395D02*
X152203D01*
X153581D02*
X154269D01*
X155477D02*
X156559D01*
X157546D02*
X157996D01*
X160714D02*
X161344D01*
X165177D02*
X165885D01*
X145081Y89980D02*
X146597D01*
X148123D02*
X148573D01*
X151499D02*
X152270D01*
X153507D02*
X154196D01*
X155570D02*
X156566D01*
X157573D02*
X158023D01*
X160714D02*
X161344D01*
X162968D02*
X163580D01*
X165130D02*
X165823D01*
X145097Y90073D02*
X146423D01*
X148150D02*
X148600D01*
X151603D02*
X152337D01*
X153431D02*
X154149D01*
X155624D02*
X156573D01*
X157600D02*
X158050D01*
X160714D02*
X161344D01*
X162889D02*
X163674D01*
X165017D02*
X165760D01*
X145113Y90167D02*
X146235D01*
X148178D02*
X148628D01*
X151707D02*
X152394D01*
X153413D02*
X154102D01*
X155671D02*
X156574D01*
X157628D02*
X158078D01*
X160714D02*
X161344D01*
X162907D02*
X163768D01*
X164892D02*
X165698D01*
X145128Y90261D02*
X146333D01*
X148205D02*
X148655D01*
X151767D02*
X152450D01*
X153402D02*
X154055D01*
X155718D02*
X156574D01*
X157655D02*
X158105D01*
X160714D02*
X161344D01*
X162925D02*
X163861D01*
X164767D02*
X165635D01*
X145509Y90354D02*
X146450D01*
X148232D02*
X148682D01*
X151823D02*
X152507D01*
X153390D02*
X154036D01*
X155764D02*
X156574D01*
X157682D02*
X158132D01*
X160714D02*
X161344D01*
X162943D02*
X165574D01*
X145869Y90448D02*
X146567D01*
X148259D02*
X148709D01*
X151879D02*
X152563D01*
X153378D02*
X154017D01*
X155783D02*
X156574D01*
X157709D02*
X158159D01*
X160714D02*
X161344D01*
X162961D02*
X165455D01*
X145963Y90542D02*
X146676D01*
X148287D02*
X148737D01*
X151935D02*
X152615D01*
X153367D02*
X153998D01*
X155802D02*
X156574D01*
X157737D02*
X158187D01*
X160714D02*
X161344D01*
X162979D02*
X163595D01*
X163615D02*
X165338D01*
X146056Y90635D02*
X146703D01*
X148314D02*
X148764D01*
X151986D02*
X152631D01*
X153355D02*
X153979D01*
X155820D02*
X156574D01*
X157764D02*
X158214D01*
X159544D02*
X159566D01*
X160714D02*
X161344D01*
X162997D02*
X163614D01*
X163850D02*
X165220D01*
X146137Y90729D02*
X146730D01*
X148341D02*
X148791D01*
X152005D02*
X152646D01*
X153343D02*
X153967D01*
X155839D02*
X156570D01*
X157791D02*
X158241D01*
X159544D02*
X159730D01*
X160714D02*
X161344D01*
X163015D02*
X163633D01*
X164141D02*
X165027D01*
X146156Y90823D02*
X146757D01*
X148369D02*
X148819D01*
X152024D02*
X152662D01*
X153337D02*
X153986D01*
X155850D02*
X156552D01*
X157819D02*
X158269D01*
X159544D02*
X159893D01*
X160714D02*
X161344D01*
X163033D02*
X163652D01*
X146174Y90917D02*
X146783D01*
X148396D02*
X148846D01*
X152043D02*
X152678D01*
X153350D02*
X154005D01*
X155831D02*
X156533D01*
X157846D02*
X158296D01*
X159544D02*
X160057D01*
X160714D02*
X161344D01*
X163051D02*
X163670D01*
X146193Y91010D02*
X146810D01*
X148423D02*
X148873D01*
X149993D02*
X150189D01*
X152061D02*
X152693D01*
X153363D02*
X154023D01*
X155813D02*
X156514D01*
X157873D02*
X158323D01*
X159544D02*
X160215D01*
X160714D02*
X161344D01*
X163069D02*
X163689D01*
X144387Y91104D02*
X144612D01*
X146212D02*
X146837D01*
X148450D02*
X148900D01*
X149564D02*
X150208D01*
X152066D02*
X152698D01*
X153377D02*
X154042D01*
X155794D02*
X156496D01*
X157900D02*
X158350D01*
X159596D02*
X160355D01*
X160714D02*
X161344D01*
X163087D02*
X163708D01*
X143985Y91198D02*
X144635D01*
X146215D02*
X146847D01*
X148478D02*
X148928D01*
X149596D02*
X150227D01*
X152043D02*
X152679D01*
X153390D02*
X154068D01*
X155775D02*
X156470D01*
X157928D02*
X158378D01*
X159752D02*
X160496D01*
X160714D02*
X161344D01*
X163105D02*
X163727D01*
X144017Y91291D02*
X144658D01*
X146192D02*
X146828D01*
X148505D02*
X148955D01*
X149627D02*
X150245D01*
X152019D02*
X152660D01*
X153404D02*
X154105D01*
X155744D02*
X156433D01*
X157955D02*
X158405D01*
X159908D02*
X160636D01*
X160714D02*
X161344D01*
X163123D02*
X163745D01*
X144048Y91385D02*
X144682D01*
X146168D02*
X146809D01*
X148532D02*
X148982D01*
X149658D02*
X150264D01*
X151996D02*
X152641D01*
X153417D02*
X154143D01*
X155698D02*
X156395D01*
X157982D02*
X158432D01*
X160064D02*
X161344D01*
X163141D02*
X163764D01*
X144079Y91479D02*
X144724D01*
X146145D02*
X146791D01*
X148559D02*
X149009D01*
X149689D02*
X150304D01*
X151954D02*
X152622D01*
X153454D02*
X154180D01*
X155651D02*
X156357D01*
X158009D02*
X158459D01*
X160220D02*
X161344D01*
X163159D02*
X163783D01*
X144110Y91572D02*
X144787D01*
X146101D02*
X146772D01*
X148587D02*
X149037D01*
X149720D02*
X150367D01*
X151891D02*
X152584D01*
X153517D02*
X154218D01*
X155604D02*
X156320D01*
X158037D02*
X158487D01*
X160376D02*
X161344D01*
X163177D02*
X163802D01*
X144142Y91666D02*
X144849D01*
X146039D02*
X146732D01*
X148614D02*
X149064D01*
X149776D02*
X150429D01*
X151829D02*
X152528D01*
X153579D02*
X154305D01*
X155531D02*
X156251D01*
X158064D02*
X158514D01*
X160483D02*
X161344D01*
X163195D02*
X163820D01*
X144211Y91760D02*
X144959D01*
X145976D02*
X146676D01*
X148641D02*
X149091D01*
X149851D02*
X150567D01*
X151719D02*
X152472D01*
X153642D02*
X154430D01*
X155437D02*
X156157D01*
X158091D02*
X158541D01*
X160554D02*
X161344D01*
X163213D02*
X163839D01*
X144304Y91854D02*
X145099D01*
X145833D02*
X146619D01*
X148668D02*
X149118D01*
X149926D02*
X150755D01*
X151578D02*
X152415D01*
X153704D02*
X154554D01*
X155343D02*
X156063D01*
X158118D02*
X158568D01*
X160624D02*
X161344D01*
X163231D02*
X163858D01*
X144398Y91947D02*
X145337D01*
X145517D02*
X146563D01*
X148696D02*
X149146D01*
X150001D02*
X151071D01*
X151276D02*
X152359D01*
X153767D02*
X154851D01*
X155057D02*
X155937D01*
X158146D02*
X158596D01*
X160694D02*
X161344D01*
X163250D02*
X165844D01*
X144492Y92041D02*
X146507D01*
X148723D02*
X149173D01*
X150076D02*
X152242D01*
X153869D02*
X155797D01*
X158173D02*
X158623D01*
X160765D02*
X161344D01*
X163267D02*
X165844D01*
X144633Y92135D02*
X146350D01*
X148750D02*
X149200D01*
X150213D02*
X152101D01*
X153986D02*
X155656D01*
X158200D02*
X158650D01*
X160835D02*
X161344D01*
X163285D02*
X165844D01*
X144789Y92228D02*
X146163D01*
X148777D02*
X149227D01*
X150369D02*
X151961D01*
X154103D02*
X155516D01*
X158227D02*
X158677D01*
X160905D02*
X161344D01*
X163304D02*
X165844D01*
X144945Y92322D02*
X145976D01*
X148805D02*
X149255D01*
X150525D02*
X151820D01*
X154220D02*
X155217D01*
X158255D02*
X158705D01*
X160976D02*
X161344D01*
X163322D02*
X165844D01*
X145378Y92416D02*
X145456D01*
X148832D02*
X149282D01*
X151124D02*
X151223D01*
X154814D02*
X154889D01*
X158282D02*
X158732D01*
X146854Y97283D02*
X147214Y97103D01*
X147484Y96833*
X147664Y96563*
X147754Y96203*
X147664Y95753*
X147574Y95393*
X147304Y95123*
X146944Y94943*
X146584Y94763*
X145954*
X144154*
Y99623*
X145954*
X146674Y99533*
X147124Y99263*
X147394Y98813*
X147484Y98363*
Y98093*
X147304Y97733*
X146854Y97283*
X144784Y97553D02*
X145774D01*
X146314*
X146674Y97823*
X146854Y98003*
Y98273*
Y98633*
X146674Y98813*
X146314Y98993*
X145684Y99083*
X144784*
Y97553*
Y95303D02*
X145954D01*
X146494Y95393*
X146854Y95483*
X147034Y95753*
X147124Y96113*
X147034Y96473*
X146854Y96743*
X146494Y96923*
X145864Y97013*
X144784*
Y95303*
X150004Y99623D02*
X150724Y99443D01*
X151264Y98993*
X151534Y98183*
X151624Y97103*
X151534Y96023*
X151174Y95303*
X150724Y94853*
X150004Y94673*
X149284Y94853*
X148834Y95303*
X148474Y96023*
X148384Y97103*
X148474Y98273*
X148834Y98993*
X149284Y99443*
X150004Y99623*
Y95123D02*
X150454Y95213D01*
X150724Y95573*
X150904Y96203*
X150994Y97103*
Y97823*
X150904Y98273*
X150724Y98723*
X150544Y98993*
X150274Y99083*
X150004Y99173*
X149554Y99083*
X149284Y98723*
X149104Y98093*
X149014Y97103*
Y96473*
X149104Y95933*
X149284Y95573*
X149464Y95303*
X149734Y95123*
X150004*
X153784Y99623D02*
X154504Y99443D01*
X155044Y98993*
X155314Y98183*
X155404Y97103*
X155314Y96023*
X154954Y95303*
X154504Y94853*
X153784Y94673*
X153064Y94853*
X152614Y95303*
X152254Y96023*
X152164Y97103*
X152254Y98273*
X152614Y98993*
X153064Y99443*
X153784Y99623*
Y95123D02*
X154234Y95213D01*
X154504Y95573*
X154684Y96203*
X154774Y97103*
Y97823*
X154684Y98273*
X154504Y98723*
X154324Y98993*
X154054Y99083*
X153784Y99173*
X153334Y99083*
X153064Y98723*
X152884Y98093*
X152794Y97103*
Y96473*
X152884Y95933*
X153064Y95573*
X153244Y95303*
X153514Y95123*
X153784*
X158284Y94763D02*
X157654D01*
Y98543*
X157114Y98183*
X156484Y97823*
Y98273*
X157384Y98813*
X157924Y99533*
X158284*
Y94763*
X162064Y97463D02*
X162424Y97193D01*
X162784Y96923*
X162874Y96563*
X162964Y96203*
X162874Y95573*
X162514Y95123*
X161974Y94763*
X161344Y94673*
X160714Y94763*
X160174Y95123*
X159814Y95573*
X159724Y96203*
X159814Y96653*
X159994Y97013*
X160264Y97283*
X160624Y97463*
X160354Y97553*
X160084Y97733*
X159994Y98093*
X159904Y98363*
X159994Y98903*
X160264Y99263*
X160714Y99533*
X161344Y99623*
X161884Y99533*
X162424Y99263*
X162694Y98813*
X162784Y98363*
Y98093*
X162604Y97823*
X162334Y97553*
X162064Y97463*
X161344Y97643D02*
X161704D01*
X161884Y97823*
X162064Y98093*
X162154Y98363*
X162064Y98723*
X161884Y98903*
X161614Y99083*
X161344Y99173*
X160984Y99083*
X160804Y98903*
X160624Y98723*
X160534Y98453*
X160624Y98093*
X160804Y97823*
X161074Y97643*
X161344*
Y95123D02*
X161704Y95213D01*
X162064Y95393*
X162244Y95753*
X162334Y96113*
X162244Y96563*
X162064Y96923*
X161704Y97103*
X161344Y97193*
X160984Y97103*
X160624Y96923*
X160444Y96563*
X160354Y96203*
X160444Y95753*
X160624Y95393*
X160984Y95213*
X161344Y95123*
X165124Y99623D02*
X165844Y99443D01*
X166384Y98993*
X166654Y98183*
X166744Y97103*
X166654Y96023*
X166294Y95303*
X165844Y94853*
X165124Y94673*
X164404Y94853*
X163954Y95303*
X163594Y96023*
X163504Y97103*
X163594Y98273*
X163954Y98993*
X164404Y99443*
X165124Y99623*
Y95123D02*
X165574Y95213D01*
X165844Y95573*
X166024Y96203*
X166114Y97103*
Y97823*
X166024Y98273*
X165844Y98723*
X165664Y98993*
X165394Y99083*
X165124Y99173*
X164674Y99083*
X164404Y98723*
X164224Y98093*
X164134Y97103*
Y96473*
X164224Y95933*
X164404Y95573*
X164584Y95303*
X164854Y95123*
X165124*
X149722Y94743D02*
X150285D01*
X153502D02*
X154065D01*
X160851D02*
X161836D01*
X164843D02*
X165405D01*
X144154Y94837D02*
X146732D01*
X149348D02*
X150659D01*
X153128D02*
X154439D01*
X157654D02*
X158284D01*
X160603D02*
X162085D01*
X164469D02*
X165779D01*
X144154Y94931D02*
X146919D01*
X149206D02*
X150801D01*
X152986D02*
X154581D01*
X157654D02*
X158284D01*
X160462D02*
X162225D01*
X164326D02*
X165921D01*
X144154Y95024D02*
X147107D01*
X149113D02*
X150895D01*
X152893D02*
X154675D01*
X157654D02*
X158284D01*
X160321D02*
X162366D01*
X164233D02*
X166015D01*
X144154Y95118D02*
X147294D01*
X149019D02*
X150989D01*
X152799D02*
X154769D01*
X157654D02*
X158284D01*
X160181D02*
X162507D01*
X164139D02*
X166109D01*
X144154Y95212D02*
X147393D01*
X148925D02*
X149600D01*
X150453D02*
X151082D01*
X152705D02*
X153380D01*
X154233D02*
X154863D01*
X157654D02*
X158284D01*
X160102D02*
X160984D01*
X161702D02*
X162585D01*
X164045D02*
X164720D01*
X165573D02*
X166202D01*
X144154Y95306D02*
X144784D01*
X145968D02*
X147486D01*
X148833D02*
X149462D01*
X150523D02*
X151175D01*
X152613D02*
X153242D01*
X154303D02*
X154955D01*
X157654D02*
X158284D01*
X160028D02*
X160798D01*
X161889D02*
X162660D01*
X163953D02*
X164582D01*
X165643D02*
X166295D01*
X144154Y95399D02*
X144784D01*
X146519D02*
X147575D01*
X148786D02*
X149400D01*
X150593D02*
X151222D01*
X152566D02*
X153180D01*
X154374D02*
X155002D01*
X157654D02*
X158284D01*
X159953D02*
X160620D01*
X162067D02*
X162735D01*
X163906D02*
X164520D01*
X165713D02*
X166342D01*
X144154Y95493D02*
X144784D01*
X146861D02*
X147599D01*
X148739D02*
X149337D01*
X150664D02*
X151269D01*
X152519D02*
X153117D01*
X154444D02*
X155049D01*
X157654D02*
X158284D01*
X159878D02*
X160574D01*
X162114D02*
X162810D01*
X163859D02*
X164457D01*
X165784D02*
X166389D01*
X144154Y95587D02*
X144784D01*
X146923D02*
X147622D01*
X148692D02*
X149277D01*
X150728D02*
X151315D01*
X152472D02*
X153057D01*
X154508D02*
X155096D01*
X157654D02*
X158284D01*
X159812D02*
X160527D01*
X162161D02*
X162876D01*
X163812D02*
X164397D01*
X165848D02*
X166435D01*
X144154Y95680D02*
X144784D01*
X146985D02*
X147646D01*
X148645D02*
X149230D01*
X150754D02*
X151363D01*
X152425D02*
X153010D01*
X154535D02*
X155143D01*
X157654D02*
X158284D01*
X159798D02*
X160480D01*
X162207D02*
X162889D01*
X163765D02*
X164350D01*
X165874D02*
X166483D01*
X144154Y95774D02*
X144784D01*
X147039D02*
X147668D01*
X148598D02*
X149183D01*
X150781D02*
X151409D01*
X152378D02*
X152963D01*
X154561D02*
X155189D01*
X157654D02*
X158284D01*
X159785D02*
X160439D01*
X162249D02*
X162902D01*
X163718D02*
X164303D01*
X165901D02*
X166530D01*
X144154Y95868D02*
X144784D01*
X147063D02*
X147687D01*
X148551D02*
X149137D01*
X150808D02*
X151456D01*
X152331D02*
X152917D01*
X154588D02*
X155236D01*
X157654D02*
X158284D01*
X159772D02*
X160421D01*
X162272D02*
X162916D01*
X163671D02*
X164256D01*
X165928D02*
X166576D01*
X144154Y95961D02*
X144784D01*
X147086D02*
X147706D01*
X148504D02*
X149099D01*
X150835D02*
X151503D01*
X152285D02*
X152879D01*
X154615D02*
X155283D01*
X157654D02*
X158284D01*
X159758D02*
X160402D01*
X162296D02*
X162929D01*
X163624D02*
X164219D01*
X165955D02*
X166623D01*
X144154Y96055D02*
X144784D01*
X147109D02*
X147724D01*
X148471D02*
X149083D01*
X150861D02*
X151537D01*
X152251D02*
X152863D01*
X154642D02*
X155317D01*
X157654D02*
X158284D01*
X159745D02*
X160383D01*
X162319D02*
X162943D01*
X163591D02*
X164203D01*
X165981D02*
X166657D01*
X144154Y96149D02*
X144784D01*
X147115D02*
X147743D01*
X148463D02*
X149068D01*
X150889D02*
X151544D01*
X152243D02*
X152848D01*
X154669D02*
X155324D01*
X157654D02*
X158284D01*
X159731D02*
X160365D01*
X162327D02*
X162956D01*
X163583D02*
X164188D01*
X166008D02*
X166665D01*
X144154Y96243D02*
X144784D01*
X147091D02*
X147744D01*
X148456D02*
X149052D01*
X150908D02*
X151552D01*
X152235D02*
X152832D01*
X154688D02*
X155332D01*
X157654D02*
X158284D01*
X159731D02*
X160364D01*
X162308D02*
X162954D01*
X163576D02*
X164172D01*
X166028D02*
X166672D01*
X144154Y96336D02*
X144784D01*
X147068D02*
X147720D01*
X148448D02*
X149037D01*
X150917D02*
X151560D01*
X152228D02*
X152817D01*
X154697D02*
X155340D01*
X157654D02*
X158284D01*
X159750D02*
X160387D01*
X162289D02*
X162930D01*
X163568D02*
X164157D01*
X166037D02*
X166680D01*
X144154Y96430D02*
X144784D01*
X147044D02*
X147697D01*
X148440D02*
X149021D01*
X150926D02*
X151568D01*
X152220D02*
X152801D01*
X154706D02*
X155348D01*
X157654D02*
X158284D01*
X159769D02*
X160411D01*
X162270D02*
X162907D01*
X163560D02*
X164141D01*
X166046D02*
X166688D01*
X144154Y96524D02*
X144784D01*
X147000D02*
X147674D01*
X148432D02*
X149014D01*
X150936D02*
X151576D01*
X152212D02*
X152794D01*
X154716D02*
X155356D01*
X157654D02*
X158284D01*
X159788D02*
X160434D01*
X162252D02*
X162883D01*
X163552D02*
X164134D01*
X166056D02*
X166696D01*
X144154Y96617D02*
X144784D01*
X146938D02*
X147628D01*
X148424D02*
X149014D01*
X150945D02*
X151583D01*
X152204D02*
X152794D01*
X154725D02*
X155363D01*
X157654D02*
X158284D01*
X159807D02*
X160471D01*
X162217D02*
X162860D01*
X163544D02*
X164134D01*
X166065D02*
X166703D01*
X144154Y96711D02*
X144784D01*
X146875D02*
X147565D01*
X148417D02*
X149014D01*
X150955D02*
X151591D01*
X152196D02*
X152794D01*
X154735D02*
X155371D01*
X157654D02*
X158284D01*
X159843D02*
X160518D01*
X162170D02*
X162837D01*
X163537D02*
X164134D01*
X166074D02*
X166711D01*
X144154Y96805D02*
X144784D01*
X146730D02*
X147503D01*
X148409D02*
X149014D01*
X150964D02*
X151599D01*
X152189D02*
X152794D01*
X154744D02*
X155379D01*
X157654D02*
X158284D01*
X159890D02*
X160565D01*
X162123D02*
X162813D01*
X163529D02*
X164134D01*
X166084D02*
X166719D01*
X144154Y96898D02*
X144784D01*
X146543D02*
X147419D01*
X148401D02*
X149014D01*
X150973D02*
X151607D01*
X152181D02*
X152794D01*
X154753D02*
X155387D01*
X157654D02*
X158284D01*
X159937D02*
X160611D01*
X162076D02*
X162790D01*
X163521D02*
X164134D01*
X166093D02*
X166727D01*
X144154Y96992D02*
X144784D01*
X146009D02*
X147325D01*
X148393D02*
X149014D01*
X150983D02*
X151615D01*
X152173D02*
X152794D01*
X154763D02*
X155394D01*
X157654D02*
X158284D01*
X159983D02*
X160762D01*
X161926D02*
X162691D01*
X163513D02*
X164134D01*
X166103D02*
X166735D01*
X144154Y97086D02*
X147231D01*
X148385D02*
X149014D01*
X150992D02*
X151622D01*
X152165D02*
X152794D01*
X154772D02*
X155402D01*
X157654D02*
X158284D01*
X160067D02*
X160949D01*
X161739D02*
X162567D01*
X163506D02*
X164134D01*
X166112D02*
X166742D01*
X144154Y97180D02*
X147061D01*
X148390D02*
X149021D01*
X150994D02*
X151617D01*
X152170D02*
X152801D01*
X154774D02*
X155398D01*
X157654D02*
X158284D01*
X160160D02*
X161290D01*
X161397D02*
X162441D01*
X163510D02*
X164141D01*
X166114D02*
X166737D01*
X144154Y97273D02*
X146874D01*
X148397D02*
X149029D01*
X150994D02*
X151609D01*
X152177D02*
X152809D01*
X154774D02*
X155390D01*
X157654D02*
X158284D01*
X160254D02*
X162317D01*
X163517D02*
X164149D01*
X166114D02*
X166730D01*
X144154Y97367D02*
X146938D01*
X148404D02*
X149038D01*
X150994D02*
X151602D01*
X152184D02*
X152818D01*
X154774D02*
X155382D01*
X157654D02*
X158284D01*
X160431D02*
X162192D01*
X163524D02*
X164158D01*
X166114D02*
X166722D01*
X144154Y97461D02*
X147031D01*
X148411D02*
X149046D01*
X150994D02*
X151594D01*
X152191D02*
X152826D01*
X154774D02*
X155374D01*
X157654D02*
X158284D01*
X160619D02*
X162067D01*
X163531D02*
X164166D01*
X166114D02*
X166714D01*
X144154Y97554D02*
X144784D01*
X146315D02*
X147125D01*
X148419D02*
X149055D01*
X150994D02*
X151586D01*
X152198D02*
X152835D01*
X154774D02*
X155366D01*
X157654D02*
X158284D01*
X160352D02*
X162334D01*
X163539D02*
X164175D01*
X166114D02*
X166706D01*
X144154Y97648D02*
X144784D01*
X146441D02*
X147219D01*
X148426D02*
X149063D01*
X150994D02*
X151578D01*
X152206D02*
X152843D01*
X154774D02*
X155358D01*
X157654D02*
X158284D01*
X160211D02*
X161066D01*
X161709D02*
X162429D01*
X163546D02*
X164183D01*
X166114D02*
X166698D01*
X144154Y97742D02*
X144784D01*
X146565D02*
X147308D01*
X148433D02*
X149072D01*
X150994D02*
X151570D01*
X152213D02*
X152852D01*
X154774D02*
X155351D01*
X157654D02*
X158284D01*
X160081D02*
X160926D01*
X161803D02*
X162523D01*
X163553D02*
X164192D01*
X166114D02*
X166691D01*
X144154Y97835D02*
X144784D01*
X146686D02*
X147355D01*
X148440D02*
X149080D01*
X150991D02*
X151563D01*
X152220D02*
X152860D01*
X154771D02*
X155343D01*
X156484D02*
X156506D01*
X157654D02*
X158284D01*
X160058D02*
X160796D01*
X161892D02*
X162612D01*
X163560D02*
X164200D01*
X166111D02*
X166683D01*
X144154Y97929D02*
X144784D01*
X146780D02*
X147402D01*
X148447D02*
X149089D01*
X150972D02*
X151555D01*
X152228D02*
X152869D01*
X154752D02*
X155335D01*
X156484D02*
X156670D01*
X157654D02*
X158284D01*
X160035D02*
X160733D01*
X161955D02*
X162675D01*
X163567D02*
X164209D01*
X166093D02*
X166675D01*
X144154Y98023D02*
X144784D01*
X146854D02*
X147449D01*
X148454D02*
X149098D01*
X150954D02*
X151547D01*
X152235D02*
X152878D01*
X154734D02*
X155327D01*
X156484D02*
X156833D01*
X157654D02*
X158284D01*
X160011D02*
X160670D01*
X162017D02*
X162737D01*
X163574D02*
X164217D01*
X166074D02*
X166667D01*
X144154Y98117D02*
X144784D01*
X146854D02*
X147484D01*
X148462D02*
X149111D01*
X150935D02*
X151539D01*
X152242D02*
X152891D01*
X154715D02*
X155319D01*
X156484D02*
X156997D01*
X157654D02*
X158284D01*
X159986D02*
X160618D01*
X162072D02*
X162784D01*
X163582D02*
X164230D01*
X166055D02*
X166659D01*
X144154Y98210D02*
X144784D01*
X146854D02*
X147484D01*
X148469D02*
X149137D01*
X150917D02*
X151525D01*
X152249D02*
X152917D01*
X154696D02*
X155305D01*
X156484D02*
X157155D01*
X157654D02*
X158284D01*
X159955D02*
X160594D01*
X162103D02*
X162784D01*
X163589D02*
X164257D01*
X166036D02*
X166645D01*
X144154Y98304D02*
X144784D01*
X146854D02*
X147484D01*
X148489D02*
X149164D01*
X150891D02*
X151494D01*
X152269D02*
X152944D01*
X154671D02*
X155274D01*
X156536D02*
X157295D01*
X157654D02*
X158284D01*
X159924D02*
X160571D01*
X162134D02*
X162784D01*
X163609D02*
X164284D01*
X166011D02*
X166614D01*
X144154Y98398D02*
X144784D01*
X146854D02*
X147477D01*
X148536D02*
X149191D01*
X150854D02*
X151462D01*
X152316D02*
X152971D01*
X154634D02*
X155242D01*
X156692D02*
X157436D01*
X157654D02*
X158284D01*
X159910D02*
X160548D01*
X162145D02*
X162777D01*
X163656D02*
X164311D01*
X165974D02*
X166582D01*
X144154Y98491D02*
X144784D01*
X146854D02*
X147458D01*
X148583D02*
X149218D01*
X150817D02*
X151431D01*
X152363D02*
X152998D01*
X154596D02*
X155211D01*
X156848D02*
X157576D01*
X157654D02*
X158284D01*
X159925D02*
X160546D01*
X162122D02*
X162758D01*
X163703D02*
X164338D01*
X165936D02*
X166551D01*
X144154Y98585D02*
X144784D01*
X146854D02*
X147439D01*
X148630D02*
X149244D01*
X150779D02*
X151400D01*
X152410D02*
X153024D01*
X154559D02*
X155180D01*
X157004D02*
X158284D01*
X159941D02*
X160578D01*
X162098D02*
X162739D01*
X163750D02*
X164365D01*
X165899D02*
X166520D01*
X144154Y98679D02*
X144784D01*
X146808D02*
X147420D01*
X148677D02*
X149271D01*
X150741D02*
X151369D01*
X152457D02*
X153051D01*
X154522D02*
X155148D01*
X157160D02*
X158284D01*
X159956D02*
X160609D01*
X162075D02*
X162720D01*
X163797D02*
X164391D01*
X165861D02*
X166489D01*
X144154Y98772D02*
X144784D01*
X146714D02*
X147402D01*
X148724D02*
X149321D01*
X150691D02*
X151337D01*
X152504D02*
X153101D01*
X154471D02*
X155117D01*
X157316D02*
X158284D01*
X159972D02*
X160673D01*
X162014D02*
X162702D01*
X163844D02*
X164441D01*
X165811D02*
X166457D01*
X144154Y98866D02*
X144784D01*
X146567D02*
X147362D01*
X148770D02*
X149391D01*
X150628D02*
X151306D01*
X152550D02*
X153171D01*
X154408D02*
X155086D01*
X157424D02*
X158284D01*
X159987D02*
X160767D01*
X161921D02*
X162662D01*
X163891D02*
X164511D01*
X165748D02*
X166426D01*
X144154Y98960D02*
X144784D01*
X146380D02*
X147306D01*
X148817D02*
X149461D01*
X150566D02*
X151275D01*
X152597D02*
X153241D01*
X154346D02*
X155055D01*
X157494D02*
X158284D01*
X160036D02*
X160861D01*
X161799D02*
X162606D01*
X163937D02*
X164581D01*
X165686D02*
X166395D01*
X144154Y99054D02*
X144784D01*
X145890D02*
X147249D01*
X148894D02*
X149532D01*
X150362D02*
X151191D01*
X152674D02*
X153312D01*
X154142D02*
X154971D01*
X157564D02*
X158284D01*
X160107D02*
X160954D01*
X161658D02*
X162549D01*
X164015D02*
X164652D01*
X165482D02*
X166311D01*
X144154Y99147D02*
X147193D01*
X148988D02*
X149876D01*
X150081D02*
X151078D01*
X152768D02*
X153656D01*
X153861D02*
X154859D01*
X157634D02*
X158284D01*
X160177D02*
X161241D01*
X161421D02*
X162493D01*
X164108D02*
X164995D01*
X165201D02*
X166198D01*
X144154Y99241D02*
X147137D01*
X149082D02*
X150966D01*
X152862D02*
X154746D01*
X157705D02*
X158284D01*
X160247D02*
X162437D01*
X164202D02*
X166086D01*
X144154Y99335D02*
X147004D01*
X149176D02*
X150854D01*
X152956D02*
X154634D01*
X157775D02*
X158284D01*
X160383D02*
X162280D01*
X164296D02*
X165974D01*
X144154Y99428D02*
X146848D01*
X149269D02*
X150741D01*
X153049D02*
X154521D01*
X157845D02*
X158284D01*
X160539D02*
X162093D01*
X164389D02*
X165861D01*
X144154Y99522D02*
X146692D01*
X149600D02*
X150407D01*
X153380D02*
X154187D01*
X157915D02*
X158284D01*
X160695D02*
X161906D01*
X164720D02*
X165527D01*
X144154Y99616D02*
X146011D01*
X149976D02*
X150032D01*
X153756D02*
X153812D01*
X161294D02*
X161386D01*
X165095D02*
X165152D01*
X235664Y6713D02*
X235564Y6513D01*
X235414Y6363*
X235214Y6263*
X235014Y6213*
X234664Y6263*
X234414Y6463*
X234214Y6763*
X234164Y7113*
X234214Y7463*
X234364Y7713*
X234614Y7913*
X234914Y8013*
X234964Y7663*
X234714Y7613*
X234564Y7463*
X234464Y7313*
X234414Y7113*
X234464Y6913*
X234564Y6713*
X234764Y6613*
X234964Y6563*
X235164Y6613*
X235364Y6713*
X235464Y6913*
X235514Y7113*
X235464Y7363*
X235764Y7313*
Y7113*
X235814Y6913*
X235964Y6763*
X236214Y6713*
X236414Y6763*
X236564Y6863*
X236614Y6963*
X236664Y7163*
X236614Y7313*
X236514Y7463*
X236364Y7563*
X236164Y7613*
X236214Y7963*
X236514Y7863*
X236714Y7663*
X236864Y7413*
X236914Y7163*
X236864Y6863*
X236714Y6563*
X236464Y6413*
X236214Y6363*
X235864Y6463*
X235664Y6713*
X234214Y3263D02*
Y3613D01*
X236464*
X234214Y4313*
Y4663*
X236514Y5413*
X234214*
Y5763*
X236914*
Y5213*
X235014Y4613*
X234714Y4513*
X234614*
Y4463*
X234764Y4413*
X235014Y4363*
X236914Y3763*
Y3263*
X234214*
Y3291D02*
X236914D01*
X234214Y3384D02*
X236914D01*
X234214Y3478D02*
X236914D01*
X234214Y3572D02*
X236914D01*
X236295Y3665D02*
X236914D01*
X235994Y3759D02*
X236914D01*
X235693Y3853D02*
X236630D01*
X235392Y3946D02*
X236333D01*
X235091Y4040D02*
X236036D01*
X234789Y4134D02*
X235739D01*
X234488Y4228D02*
X235443D01*
X234214Y4321D02*
X235146D01*
X234214Y4415D02*
X234758D01*
X234214Y4509D02*
X234614D01*
X234214Y4602D02*
X234982D01*
X234315Y4696D02*
X235277D01*
X234602Y4790D02*
X235574D01*
X234890Y4883D02*
X235870D01*
X235177Y4977D02*
X236167D01*
X235465Y5071D02*
X236464D01*
X235752Y5165D02*
X236760D01*
X236039Y5258D02*
X236914D01*
X236327Y5352D02*
X236914D01*
X234214Y5446D02*
X236914D01*
X234214Y5539D02*
X236914D01*
X234214Y5633D02*
X236914D01*
X234214Y5727D02*
X236914D01*
X234631Y6289D02*
X235266D01*
X234514Y6383D02*
X235433D01*
X236145D02*
X236312D01*
X234405Y6476D02*
X235527D01*
X235853D02*
X236569D01*
X234343Y6570D02*
X234935D01*
X234992D02*
X235592D01*
X235778D02*
X236717D01*
X234280Y6664D02*
X234662D01*
X235265D02*
X235639D01*
X235703D02*
X236764D01*
X234217Y6757D02*
X234542D01*
X235386D02*
X235991D01*
X236392D02*
X236811D01*
X234201Y6851D02*
X234495D01*
X235433D02*
X235876D01*
X236546D02*
X236858D01*
X234188Y6945D02*
X234456D01*
X235472D02*
X235806D01*
X236605D02*
X236878D01*
X234174Y7039D02*
X234432D01*
X235495D02*
X235782D01*
X236633D02*
X236893D01*
X234167Y7132D02*
X234419D01*
X235510D02*
X235764D01*
X236656D02*
X236909D01*
X234180Y7226D02*
X234442D01*
X235491D02*
X235764D01*
X236643D02*
X236901D01*
X234193Y7320D02*
X234468D01*
X235472D02*
X235724D01*
X236609D02*
X236882D01*
X234207Y7413D02*
X234531D01*
X236547D02*
X236864D01*
X234240Y7507D02*
X234608D01*
X236448D02*
X236807D01*
X234296Y7601D02*
X234702D01*
X236213D02*
X236751D01*
X234353Y7694D02*
X234959D01*
X236176D02*
X236682D01*
X234458Y7788D02*
X234946D01*
X236189D02*
X236589D01*
X234575Y7882D02*
X234933D01*
X236202D02*
X236457D01*
X234802Y7976D02*
X234919D01*
D02*
D84*
X14799Y158163D02*
X34799D01*
X24799Y145663*
X14799Y158163*
X34799Y145663D02*
X14799D01*
X113199Y68463D02*
X133199D01*
X123199Y55963*
X113199Y68463*
X133199Y55963D02*
X113199D01*
X0Y0D02*
M02*
