%FSLAX25Y25*%
%MOIN*%
G04 EasyPC Gerber Version 18.0.6 Build 3620 *
%ADD70C,0.00500*%
%ADD76C,0.10000*%
X0Y0D02*
D02*
D70*
X31241Y22137D02*
X32803Y25887D01*
X34366Y22137*
X31866Y23699D02*
X33741D01*
X31241Y215050D02*
X32803Y218800D01*
X34366Y215050*
X31866Y216613D02*
X33741D01*
X34814Y198500D02*
Y202250D01*
X36689*
X37314Y201938*
X37626Y201626*
X37939Y201000*
Y199750*
X37626Y199126*
X37314Y198813*
X36689Y198500*
X34814*
X52601Y18776D02*
X53226Y18463D01*
X53539Y17838*
X53226Y17213*
X52601Y16900*
X50414*
Y20650*
X52601*
X53226Y20338*
X53539Y19713*
X53226Y19088*
X52601Y18776*
X50414*
X52601Y28776D02*
X53226Y28463D01*
X53539Y27838*
X53226Y27213*
X52601Y26900*
X50414*
Y30650*
X52601*
X53226Y30338*
X53539Y29713*
X53226Y29088*
X52601Y28776*
X50414*
X52601Y211925D02*
X53226Y211613D01*
X53539Y210988*
X53226Y210363*
X52601Y210050*
X50414*
Y213800*
X52601*
X53226Y213488*
X53539Y212863*
X53226Y212238*
X52601Y211925*
X50414*
X52601Y221925D02*
X53226Y221613D01*
X53539Y220988*
X53226Y220363*
X52601Y220050*
X50414*
Y223800*
X52601*
X53226Y223488*
X53539Y222863*
X53226Y222238*
X52601Y221925*
X50414*
X62601Y18776D02*
X63226Y18463D01*
X63539Y17838*
X63226Y17213*
X62601Y16900*
X60414*
Y20650*
X62601*
X63226Y20338*
X63539Y19713*
X63226Y19088*
X62601Y18776*
X60414*
X62601Y28776D02*
X63226Y28463D01*
X63539Y27838*
X63226Y27213*
X62601Y26900*
X60414*
Y30650*
X62601*
X63226Y30338*
X63539Y29713*
X63226Y29088*
X62601Y28776*
X60414*
X62601Y211925D02*
X63226Y211613D01*
X63539Y210988*
X63226Y210363*
X62601Y210050*
X60414*
Y213800*
X62601*
X63226Y213488*
X63539Y212863*
X63226Y212238*
X62601Y211925*
X60414*
X62601Y221925D02*
X63226Y221613D01*
X63539Y220988*
X63226Y220363*
X62601Y220050*
X60414*
Y223800*
X62601*
X63226Y223488*
X63539Y222863*
X63226Y222238*
X62601Y221925*
X60414*
X71139Y105126D02*
X70826Y104813D01*
X70201Y104500*
X69264*
X68639Y104813*
X68326Y105126*
X68014Y105750*
Y107000*
X68326Y107626*
X68639Y107938*
X69264Y108250*
X70201*
X70826Y107938*
X71139Y107626*
X69614Y123700D02*
Y127450D01*
X71489*
X72114Y127138*
X72426Y126826*
X72739Y126200*
Y124950*
X72426Y124326*
X72114Y124013*
X71489Y123700*
X69614*
X72601Y18776D02*
X73226Y18463D01*
X73539Y17838*
X73226Y17213*
X72601Y16900*
X70414*
Y20650*
X72601*
X73226Y20338*
X73539Y19713*
X73226Y19088*
X72601Y18776*
X70414*
X72601Y28776D02*
X73226Y28463D01*
X73539Y27838*
X73226Y27213*
X72601Y26900*
X70414*
Y30650*
X72601*
X73226Y30338*
X73539Y29713*
X73226Y29088*
X72601Y28776*
X70414*
X72601Y211925D02*
X73226Y211613D01*
X73539Y210988*
X73226Y210363*
X72601Y210050*
X70414*
Y213800*
X72601*
X73226Y213488*
X73539Y212863*
X73226Y212238*
X72601Y211925*
X70414*
X72601Y221925D02*
X73226Y221613D01*
X73539Y220988*
X73226Y220363*
X72601Y220050*
X70414*
Y223800*
X72601*
X73226Y223488*
X73539Y222863*
X73226Y222238*
X72601Y221925*
X70414*
X77539Y160226D02*
X77226Y159913D01*
X76601Y159600*
X75664*
X75039Y159913*
X74726Y160226*
X74414Y160850*
Y162100*
X74726Y162726*
X75039Y163038*
X75664Y163350*
X76601*
X77226Y163038*
X77539Y162726*
X82601Y18776D02*
X83226Y18463D01*
X83539Y17838*
X83226Y17213*
X82601Y16900*
X80414*
Y20650*
X82601*
X83226Y20338*
X83539Y19713*
X83226Y19088*
X82601Y18776*
X80414*
X82601Y28776D02*
X83226Y28463D01*
X83539Y27838*
X83226Y27213*
X82601Y26900*
X80414*
Y30650*
X82601*
X83226Y30338*
X83539Y29713*
X83226Y29088*
X82601Y28776*
X80414*
X82601Y211925D02*
X83226Y211613D01*
X83539Y210988*
X83226Y210363*
X82601Y210050*
X80414*
Y213800*
X82601*
X83226Y213488*
X83539Y212863*
X83226Y212238*
X82601Y211925*
X80414*
X82601Y221925D02*
X83226Y221613D01*
X83539Y220988*
X83226Y220363*
X82601Y220050*
X80414*
Y223800*
X82601*
X83226Y223488*
X83539Y222863*
X83226Y222238*
X82601Y221925*
X80414*
X89609Y71335D02*
X90234Y71022D01*
X90547Y70397*
X90234Y69772*
X89609Y69459*
X87422*
Y73209*
X89609*
X90234Y72897*
X90547Y72272*
X90234Y71647*
X89609Y71335*
X87422*
X89609Y81335D02*
X90234Y81022D01*
X90547Y80397*
X90234Y79772*
X89609Y79459*
X87422*
Y83209*
X89609*
X90234Y82897*
X90547Y82272*
X90234Y81647*
X89609Y81335*
X87422*
X89609Y91335D02*
X90234Y91022D01*
X90547Y90397*
X90234Y89772*
X89609Y89459*
X87422*
Y93209*
X89609*
X90234Y92897*
X90547Y92272*
X90234Y91647*
X89609Y91335*
X87422*
X89609Y101335D02*
X90234Y101022D01*
X90547Y100397*
X90234Y99772*
X89609Y99459*
X87422*
Y103209*
X89609*
X90234Y102897*
X90547Y102272*
X90234Y101647*
X89609Y101335*
X87422*
X89609Y111335D02*
X90234Y111022D01*
X90547Y110397*
X90234Y109772*
X89609Y109459*
X87422*
Y113209*
X89609*
X90234Y112897*
X90547Y112272*
X90234Y111647*
X89609Y111335*
X87422*
X89609Y121335D02*
X90234Y121022D01*
X90547Y120397*
X90234Y119772*
X89609Y119459*
X87422*
Y123209*
X89609*
X90234Y122897*
X90547Y122272*
X90234Y121647*
X89609Y121335*
X87422*
X89609Y131335D02*
X90234Y131022D01*
X90547Y130397*
X90234Y129772*
X89609Y129459*
X87422*
Y133209*
X89609*
X90234Y132897*
X90547Y132272*
X90234Y131647*
X89609Y131335*
X87422*
X89609Y141335D02*
X90234Y141022D01*
X90547Y140397*
X90234Y139772*
X89609Y139459*
X87422*
Y143209*
X89609*
X90234Y142897*
X90547Y142272*
X90234Y141647*
X89609Y141335*
X87422*
X89609Y151335D02*
X90234Y151022D01*
X90547Y150397*
X90234Y149772*
X89609Y149459*
X87422*
Y153209*
X89609*
X90234Y152897*
X90547Y152272*
X90234Y151647*
X89609Y151335*
X87422*
X89609Y161335D02*
X90234Y161022D01*
X90547Y160397*
X90234Y159772*
X89609Y159459*
X87422*
Y163209*
X89609*
X90234Y162897*
X90547Y162272*
X90234Y161647*
X89609Y161335*
X87422*
X92601Y18776D02*
X93226Y18463D01*
X93539Y17838*
X93226Y17213*
X92601Y16900*
X90414*
Y20650*
X92601*
X93226Y20338*
X93539Y19713*
X93226Y19088*
X92601Y18776*
X90414*
X92601Y28776D02*
X93226Y28463D01*
X93539Y27838*
X93226Y27213*
X92601Y26900*
X90414*
Y30650*
X92601*
X93226Y30338*
X93539Y29713*
X93226Y29088*
X92601Y28776*
X90414*
X92601Y211925D02*
X93226Y211613D01*
X93539Y210988*
X93226Y210363*
X92601Y210050*
X90414*
Y213800*
X92601*
X93226Y213488*
X93539Y212863*
X93226Y212238*
X92601Y211925*
X90414*
X92601Y221925D02*
X93226Y221613D01*
X93539Y220988*
X93226Y220363*
X92601Y220050*
X90414*
Y223800*
X92601*
X93226Y223488*
X93539Y222863*
X93226Y222238*
X92601Y221925*
X90414*
X99609Y71335D02*
X100234Y71022D01*
X100547Y70397*
X100234Y69772*
X99609Y69459*
X97422*
Y73209*
X99609*
X100234Y72897*
X100547Y72272*
X100234Y71647*
X99609Y71335*
X97422*
X99609Y81335D02*
X100234Y81022D01*
X100547Y80397*
X100234Y79772*
X99609Y79459*
X97422*
Y83209*
X99609*
X100234Y82897*
X100547Y82272*
X100234Y81647*
X99609Y81335*
X97422*
X99609Y91335D02*
X100234Y91022D01*
X100547Y90397*
X100234Y89772*
X99609Y89459*
X97422*
Y93209*
X99609*
X100234Y92897*
X100547Y92272*
X100234Y91647*
X99609Y91335*
X97422*
X99609Y101335D02*
X100234Y101022D01*
X100547Y100397*
X100234Y99772*
X99609Y99459*
X97422*
Y103209*
X99609*
X100234Y102897*
X100547Y102272*
X100234Y101647*
X99609Y101335*
X97422*
X99609Y111335D02*
X100234Y111022D01*
X100547Y110397*
X100234Y109772*
X99609Y109459*
X97422*
Y113209*
X99609*
X100234Y112897*
X100547Y112272*
X100234Y111647*
X99609Y111335*
X97422*
X99609Y121335D02*
X100234Y121022D01*
X100547Y120397*
X100234Y119772*
X99609Y119459*
X97422*
Y123209*
X99609*
X100234Y122897*
X100547Y122272*
X100234Y121647*
X99609Y121335*
X97422*
X99609Y131335D02*
X100234Y131022D01*
X100547Y130397*
X100234Y129772*
X99609Y129459*
X97422*
Y133209*
X99609*
X100234Y132897*
X100547Y132272*
X100234Y131647*
X99609Y131335*
X97422*
X99609Y141335D02*
X100234Y141022D01*
X100547Y140397*
X100234Y139772*
X99609Y139459*
X97422*
Y143209*
X99609*
X100234Y142897*
X100547Y142272*
X100234Y141647*
X99609Y141335*
X97422*
X99609Y151335D02*
X100234Y151022D01*
X100547Y150397*
X100234Y149772*
X99609Y149459*
X97422*
Y153209*
X99609*
X100234Y152897*
X100547Y152272*
X100234Y151647*
X99609Y151335*
X97422*
X99609Y161335D02*
X100234Y161022D01*
X100547Y160397*
X100234Y159772*
X99609Y159459*
X97422*
Y163209*
X99609*
X100234Y162897*
X100547Y162272*
X100234Y161647*
X99609Y161335*
X97422*
X102601Y18776D02*
X103226Y18463D01*
X103539Y17838*
X103226Y17213*
X102601Y16900*
X100414*
Y20650*
X102601*
X103226Y20338*
X103539Y19713*
X103226Y19088*
X102601Y18776*
X100414*
X102601Y28776D02*
X103226Y28463D01*
X103539Y27838*
X103226Y27213*
X102601Y26900*
X100414*
Y30650*
X102601*
X103226Y30338*
X103539Y29713*
X103226Y29088*
X102601Y28776*
X100414*
Y198900D02*
Y202650D01*
X102289*
X102914Y202338*
X103226Y202026*
X103539Y201400*
Y200150*
X103226Y199526*
X102914Y199213*
X102289Y198900*
X100414*
X102601Y211925D02*
X103226Y211613D01*
X103539Y210988*
X103226Y210363*
X102601Y210050*
X100414*
Y213800*
X102601*
X103226Y213488*
X103539Y212863*
X103226Y212238*
X102601Y211925*
X100414*
X102601Y221925D02*
X103226Y221613D01*
X103539Y220988*
X103226Y220363*
X102601Y220050*
X100414*
Y223800*
X102601*
X103226Y223488*
X103539Y222863*
X103226Y222238*
X102601Y221925*
X100414*
X112601Y18776D02*
X113226Y18463D01*
X113539Y17838*
X113226Y17213*
X112601Y16900*
X110414*
Y20650*
X112601*
X113226Y20338*
X113539Y19713*
X113226Y19088*
X112601Y18776*
X110414*
X112601Y28776D02*
X113226Y28463D01*
X113539Y27838*
X113226Y27213*
X112601Y26900*
X110414*
Y30650*
X112601*
X113226Y30338*
X113539Y29713*
X113226Y29088*
X112601Y28776*
X110414*
X112601Y211925D02*
X113226Y211613D01*
X113539Y210988*
X113226Y210363*
X112601Y210050*
X110414*
Y213800*
X112601*
X113226Y213488*
X113539Y212863*
X113226Y212238*
X112601Y211925*
X110414*
X112601Y221925D02*
X113226Y221613D01*
X113539Y220988*
X113226Y220363*
X112601Y220050*
X110414*
Y223800*
X112601*
X113226Y223488*
X113539Y222863*
X113226Y222238*
X112601Y221925*
X110414*
X122601Y18776D02*
X123226Y18463D01*
X123539Y17838*
X123226Y17213*
X122601Y16900*
X120414*
Y20650*
X122601*
X123226Y20338*
X123539Y19713*
X123226Y19088*
X122601Y18776*
X120414*
X122601Y28776D02*
X123226Y28463D01*
X123539Y27838*
X123226Y27213*
X122601Y26900*
X120414*
Y30650*
X122601*
X123226Y30338*
X123539Y29713*
X123226Y29088*
X122601Y28776*
X120414*
X122601Y211925D02*
X123226Y211613D01*
X123539Y210988*
X123226Y210363*
X122601Y210050*
X120414*
Y213800*
X122601*
X123226Y213488*
X123539Y212863*
X123226Y212238*
X122601Y211925*
X120414*
X122601Y221925D02*
X123226Y221613D01*
X123539Y220988*
X123226Y220363*
X122601Y220050*
X120414*
Y223800*
X122601*
X123226Y223488*
X123539Y222863*
X123226Y222238*
X122601Y221925*
X120414*
X120814Y199300D02*
Y203050D01*
X122689*
X123314Y202738*
X123626Y202426*
X123939Y201800*
Y200550*
X123626Y199926*
X123314Y199613*
X122689Y199300*
X120814*
X129939Y51126D02*
X129626Y50813D01*
X129001Y50500*
X128064*
X127439Y50813*
X127126Y51126*
X126814Y51750*
Y53000*
X127126Y53626*
X127439Y53938*
X128064Y54250*
X129001*
X129626Y53938*
X129939Y53626*
X132601Y18776D02*
X133226Y18463D01*
X133539Y17838*
X133226Y17213*
X132601Y16900*
X130414*
Y20650*
X132601*
X133226Y20338*
X133539Y19713*
X133226Y19088*
X132601Y18776*
X130414*
X132601Y28776D02*
X133226Y28463D01*
X133539Y27838*
X133226Y27213*
X132601Y26900*
X130414*
Y30650*
X132601*
X133226Y30338*
X133539Y29713*
X133226Y29088*
X132601Y28776*
X130414*
X133539Y167526D02*
X133226Y167213D01*
X132601Y166900*
X131664*
X131039Y167213*
X130726Y167526*
X130414Y168150*
Y169400*
X130726Y170026*
X131039Y170338*
X131664Y170650*
X132601*
X133226Y170338*
X133539Y170026*
X132601Y211925D02*
X133226Y211613D01*
X133539Y210988*
X133226Y210363*
X132601Y210050*
X130414*
Y213800*
X132601*
X133226Y213488*
X133539Y212863*
X133226Y212238*
X132601Y211925*
X130414*
X132601Y221925D02*
X133226Y221613D01*
X133539Y220988*
X133226Y220363*
X132601Y220050*
X130414*
Y223800*
X132601*
X133226Y223488*
X133539Y222863*
X133226Y222238*
X132601Y221925*
X130414*
X133214Y119459D02*
Y123209D01*
X135089*
X135714Y122897*
X136026Y122585*
X136339Y121959*
Y120709*
X136026Y120085*
X135714Y119772*
X135089Y119459*
X133214*
X142601Y18776D02*
X143226Y18463D01*
X143539Y17838*
X143226Y17213*
X142601Y16900*
X140414*
Y20650*
X142601*
X143226Y20338*
X143539Y19713*
X143226Y19088*
X142601Y18776*
X140414*
X142601Y28776D02*
X143226Y28463D01*
X143539Y27838*
X143226Y27213*
X142601Y26900*
X140414*
Y30650*
X142601*
X143226Y30338*
X143539Y29713*
X143226Y29088*
X142601Y28776*
X140414*
X142601Y211925D02*
X143226Y211613D01*
X143539Y210988*
X143226Y210363*
X142601Y210050*
X140414*
Y213800*
X142601*
X143226Y213488*
X143539Y212863*
X143226Y212238*
X142601Y211925*
X140414*
X142601Y221925D02*
X143226Y221613D01*
X143539Y220988*
X143226Y220363*
X142601Y220050*
X140414*
Y223800*
X142601*
X143226Y223488*
X143539Y222863*
X143226Y222238*
X142601Y221925*
X140414*
X152601Y18776D02*
X153226Y18463D01*
X153539Y17838*
X153226Y17213*
X152601Y16900*
X150414*
Y20650*
X152601*
X153226Y20338*
X153539Y19713*
X153226Y19088*
X152601Y18776*
X150414*
X152601Y28776D02*
X153226Y28463D01*
X153539Y27838*
X153226Y27213*
X152601Y26900*
X150414*
Y30650*
X152601*
X153226Y30338*
X153539Y29713*
X153226Y29088*
X152601Y28776*
X150414*
X152601Y211925D02*
X153226Y211613D01*
X153539Y210988*
X153226Y210363*
X152601Y210050*
X150414*
Y213800*
X152601*
X153226Y213488*
X153539Y212863*
X153226Y212238*
X152601Y211925*
X150414*
X152601Y221925D02*
X153226Y221613D01*
X153539Y220988*
X153226Y220363*
X152601Y220050*
X150414*
Y223800*
X152601*
X153226Y223488*
X153539Y222863*
X153226Y222238*
X152601Y221925*
X150414*
X162601Y18776D02*
X163226Y18463D01*
X163539Y17838*
X163226Y17213*
X162601Y16900*
X160414*
Y20650*
X162601*
X163226Y20338*
X163539Y19713*
X163226Y19088*
X162601Y18776*
X160414*
X162601Y28776D02*
X163226Y28463D01*
X163539Y27838*
X163226Y27213*
X162601Y26900*
X160414*
Y30650*
X162601*
X163226Y30338*
X163539Y29713*
X163226Y29088*
X162601Y28776*
X160414*
X162601Y211925D02*
X163226Y211613D01*
X163539Y210988*
X163226Y210363*
X162601Y210050*
X160414*
Y213800*
X162601*
X163226Y213488*
X163539Y212863*
X163226Y212238*
X162601Y211925*
X160414*
X162601Y221925D02*
X163226Y221613D01*
X163539Y220988*
X163226Y220363*
X162601Y220050*
X160414*
Y223800*
X162601*
X163226Y223488*
X163539Y222863*
X163226Y222238*
X162601Y221925*
X160414*
X168014Y190500D02*
Y194250D01*
X169889*
X170514Y193938*
X170826Y193626*
X171139Y193000*
Y191750*
X170826Y191126*
X170514Y190813*
X169889Y190500*
X168014*
X172601Y18776D02*
X173226Y18463D01*
X173539Y17838*
X173226Y17213*
X172601Y16900*
X170414*
Y20650*
X172601*
X173226Y20338*
X173539Y19713*
X173226Y19088*
X172601Y18776*
X170414*
X172601Y28776D02*
X173226Y28463D01*
X173539Y27838*
X173226Y27213*
X172601Y26900*
X170414*
Y30650*
X172601*
X173226Y30338*
X173539Y29713*
X173226Y29088*
X172601Y28776*
X170414*
X172601Y211925D02*
X173226Y211613D01*
X173539Y210988*
X173226Y210363*
X172601Y210050*
X170414*
Y213800*
X172601*
X173226Y213488*
X173539Y212863*
X173226Y212238*
X172601Y211925*
X170414*
X172601Y221925D02*
X173226Y221613D01*
X173539Y220988*
X173226Y220363*
X172601Y220050*
X170414*
Y223800*
X172601*
X173226Y223488*
X173539Y222863*
X173226Y222238*
X172601Y221925*
X170414*
X180739Y195526D02*
X180426Y195213D01*
X179801Y194900*
X178864*
X178239Y195213*
X177926Y195526*
X177614Y196150*
Y197400*
X177926Y198026*
X178239Y198338*
X178864Y198650*
X179801*
X180426Y198338*
X180739Y198026*
X182601Y18776D02*
X183226Y18463D01*
X183539Y17838*
X183226Y17213*
X182601Y16900*
X180414*
Y20650*
X182601*
X183226Y20338*
X183539Y19713*
X183226Y19088*
X182601Y18776*
X180414*
X182601Y28776D02*
X183226Y28463D01*
X183539Y27838*
X183226Y27213*
X182601Y26900*
X180414*
Y30650*
X182601*
X183226Y30338*
X183539Y29713*
X183226Y29088*
X182601Y28776*
X180414*
X182601Y211925D02*
X183226Y211613D01*
X183539Y210988*
X183226Y210363*
X182601Y210050*
X180414*
Y213800*
X182601*
X183226Y213488*
X183539Y212863*
X183226Y212238*
X182601Y211925*
X180414*
X182601Y221925D02*
X183226Y221613D01*
X183539Y220988*
X183226Y220363*
X182601Y220050*
X180414*
Y223800*
X182601*
X183226Y223488*
X183539Y222863*
X183226Y222238*
X182601Y221925*
X180414*
X189614Y187700D02*
Y191450D01*
X191489*
X192114Y191138*
X192426Y190826*
X192739Y190200*
Y188950*
X192426Y188326*
X192114Y188013*
X191489Y187700*
X189614*
X192601Y18776D02*
X193226Y18463D01*
X193539Y17838*
X193226Y17213*
X192601Y16900*
X190414*
Y20650*
X192601*
X193226Y20338*
X193539Y19713*
X193226Y19088*
X192601Y18776*
X190414*
X192601Y28776D02*
X193226Y28463D01*
X193539Y27838*
X193226Y27213*
X192601Y26900*
X190414*
Y30650*
X192601*
X193226Y30338*
X193539Y29713*
X193226Y29088*
X192601Y28776*
X190414*
X192601Y211925D02*
X193226Y211613D01*
X193539Y210988*
X193226Y210363*
X192601Y210050*
X190414*
Y213800*
X192601*
X193226Y213488*
X193539Y212863*
X193226Y212238*
X192601Y211925*
X190414*
X192601Y221925D02*
X193226Y221613D01*
X193539Y220988*
X193226Y220363*
X192601Y220050*
X190414*
Y223800*
X192601*
X193226Y223488*
X193539Y222863*
X193226Y222238*
X192601Y221925*
X190414*
X202601Y18776D02*
X203226Y18463D01*
X203539Y17838*
X203226Y17213*
X202601Y16900*
X200414*
Y20650*
X202601*
X203226Y20338*
X203539Y19713*
X203226Y19088*
X202601Y18776*
X200414*
X202601Y28776D02*
X203226Y28463D01*
X203539Y27838*
X203226Y27213*
X202601Y26900*
X200414*
Y30650*
X202601*
X203226Y30338*
X203539Y29713*
X203226Y29088*
X202601Y28776*
X200414*
X202601Y211925D02*
X203226Y211613D01*
X203539Y210988*
X203226Y210363*
X202601Y210050*
X200414*
Y213800*
X202601*
X203226Y213488*
X203539Y212863*
X203226Y212238*
X202601Y211925*
X200414*
X202601Y221925D02*
X203226Y221613D01*
X203539Y220988*
X203226Y220363*
X202601Y220050*
X200414*
Y223800*
X202601*
X203226Y223488*
X203539Y222863*
X203226Y222238*
X202601Y221925*
X200414*
X212601Y18776D02*
X213226Y18463D01*
X213539Y17838*
X213226Y17213*
X212601Y16900*
X210414*
Y20650*
X212601*
X213226Y20338*
X213539Y19713*
X213226Y19088*
X212601Y18776*
X210414*
X212601Y28776D02*
X213226Y28463D01*
X213539Y27838*
X213226Y27213*
X212601Y26900*
X210414*
Y30650*
X212601*
X213226Y30338*
X213539Y29713*
X213226Y29088*
X212601Y28776*
X210414*
X212601Y211925D02*
X213226Y211613D01*
X213539Y210988*
X213226Y210363*
X212601Y210050*
X210414*
Y213800*
X212601*
X213226Y213488*
X213539Y212863*
X213226Y212238*
X212601Y211925*
X210414*
X212601Y221925D02*
X213226Y221613D01*
X213539Y220988*
X213226Y220363*
X212601Y220050*
X210414*
Y223800*
X212601*
X213226Y223488*
X213539Y222863*
X213226Y222238*
X212601Y221925*
X210414*
X222601Y18776D02*
X223226Y18463D01*
X223539Y17838*
X223226Y17213*
X222601Y16900*
X220414*
Y20650*
X222601*
X223226Y20338*
X223539Y19713*
X223226Y19088*
X222601Y18776*
X220414*
X222601Y28776D02*
X223226Y28463D01*
X223539Y27838*
X223226Y27213*
X222601Y26900*
X220414*
Y30650*
X222601*
X223226Y30338*
X223539Y29713*
X223226Y29088*
X222601Y28776*
X220414*
X222601Y211925D02*
X223226Y211613D01*
X223539Y210988*
X223226Y210363*
X222601Y210050*
X220414*
Y213800*
X222601*
X223226Y213488*
X223539Y212863*
X223226Y212238*
X222601Y211925*
X220414*
X222601Y221925D02*
X223226Y221613D01*
X223539Y220988*
X223226Y220363*
X222601Y220050*
X220414*
Y223800*
X222601*
X223226Y223488*
X223539Y222863*
X223226Y222238*
X222601Y221925*
X220414*
X232601Y18776D02*
X233226Y18463D01*
X233539Y17838*
X233226Y17213*
X232601Y16900*
X230414*
Y20650*
X232601*
X233226Y20338*
X233539Y19713*
X233226Y19088*
X232601Y18776*
X230414*
X232601Y28776D02*
X233226Y28463D01*
X233539Y27838*
X233226Y27213*
X232601Y26900*
X230414*
Y30650*
X232601*
X233226Y30338*
X233539Y29713*
X233226Y29088*
X232601Y28776*
X230414*
X232601Y211925D02*
X233226Y211613D01*
X233539Y210988*
X233226Y210363*
X232601Y210050*
X230414*
Y213800*
X232601*
X233226Y213488*
X233539Y212863*
X233226Y212238*
X232601Y211925*
X230414*
X232601Y221925D02*
X233226Y221613D01*
X233539Y220988*
X233226Y220363*
X232601Y220050*
X230414*
Y223800*
X232601*
X233226Y223488*
X233539Y222863*
X233226Y222238*
X232601Y221925*
X230414*
X242601Y18776D02*
X243226Y18463D01*
X243539Y17838*
X243226Y17213*
X242601Y16900*
X240414*
Y20650*
X242601*
X243226Y20338*
X243539Y19713*
X243226Y19088*
X242601Y18776*
X240414*
X242601Y28776D02*
X243226Y28463D01*
X243539Y27838*
X243226Y27213*
X242601Y26900*
X240414*
Y30650*
X242601*
X243226Y30338*
X243539Y29713*
X243226Y29088*
X242601Y28776*
X240414*
X242601Y211925D02*
X243226Y211613D01*
X243539Y210988*
X243226Y210363*
X242601Y210050*
X240414*
Y213800*
X242601*
X243226Y213488*
X243539Y212863*
X243226Y212238*
X242601Y211925*
X240414*
X242601Y221925D02*
X243226Y221613D01*
X243539Y220988*
X243226Y220363*
X242601Y220050*
X240414*
Y223800*
X242601*
X243226Y223488*
X243539Y222863*
X243226Y222238*
X242601Y221925*
X240414*
X256774Y71335D02*
X257400Y71022D01*
X257712Y70397*
X257400Y69772*
X256774Y69459*
X254587*
Y73209*
X256774*
X257400Y72897*
X257712Y72272*
X257400Y71647*
X256774Y71335*
X254587*
X256774Y81335D02*
X257400Y81022D01*
X257712Y80397*
X257400Y79772*
X256774Y79459*
X254587*
Y83209*
X256774*
X257400Y82897*
X257712Y82272*
X257400Y81647*
X256774Y81335*
X254587*
X256774Y91335D02*
X257400Y91022D01*
X257712Y90397*
X257400Y89772*
X256774Y89459*
X254587*
Y93209*
X256774*
X257400Y92897*
X257712Y92272*
X257400Y91647*
X256774Y91335*
X254587*
X256774Y101335D02*
X257400Y101022D01*
X257712Y100397*
X257400Y99772*
X256774Y99459*
X254587*
Y103209*
X256774*
X257400Y102897*
X257712Y102272*
X257400Y101647*
X256774Y101335*
X254587*
X256774Y111335D02*
X257400Y111022D01*
X257712Y110397*
X257400Y109772*
X256774Y109459*
X254587*
Y113209*
X256774*
X257400Y112897*
X257712Y112272*
X257400Y111647*
X256774Y111335*
X254587*
X256774Y121335D02*
X257400Y121022D01*
X257712Y120397*
X257400Y119772*
X256774Y119459*
X254587*
Y123209*
X256774*
X257400Y122897*
X257712Y122272*
X257400Y121647*
X256774Y121335*
X254587*
X256774Y131335D02*
X257400Y131022D01*
X257712Y130397*
X257400Y129772*
X256774Y129459*
X254587*
Y133209*
X256774*
X257400Y132897*
X257712Y132272*
X257400Y131647*
X256774Y131335*
X254587*
X256774Y141335D02*
X257400Y141022D01*
X257712Y140397*
X257400Y139772*
X256774Y139459*
X254587*
Y143209*
X256774*
X257400Y142897*
X257712Y142272*
X257400Y141647*
X256774Y141335*
X254587*
X256774Y151335D02*
X257400Y151022D01*
X257712Y150397*
X257400Y149772*
X256774Y149459*
X254587*
Y153209*
X256774*
X257400Y152897*
X257712Y152272*
X257400Y151647*
X256774Y151335*
X254587*
X256774Y161335D02*
X257400Y161022D01*
X257712Y160397*
X257400Y159772*
X256774Y159459*
X254587*
Y163209*
X256774*
X257400Y162897*
X257712Y162272*
X257400Y161647*
X256774Y161335*
X254587*
X256814Y182500D02*
Y186250D01*
X258689*
X259314Y185938*
X259626Y185626*
X259939Y185000*
Y183750*
X259626Y183126*
X259314Y182813*
X258689Y182500*
X256814*
X259587Y22137D02*
X261150Y25887D01*
X262712Y22137*
X260212Y23699D02*
X262087D01*
X259587Y215050D02*
X261150Y218800D01*
X262712Y215050*
X260212Y216613D02*
X262087D01*
X260414Y176100D02*
Y179850D01*
X262289*
X262914Y179538*
X263226Y179226*
X263539Y178600*
Y177350*
X263226Y176726*
X262914Y176413*
X262289Y176100*
X260414*
X265139Y49126D02*
X264826Y48813D01*
X264201Y48500*
X263264*
X262639Y48813*
X262326Y49126*
X262014Y49750*
Y51000*
X262326Y51626*
X262639Y51938*
X263264Y52250*
X264201*
X264826Y51938*
X265139Y51626*
X266774Y71335D02*
X267400Y71022D01*
X267712Y70397*
X267400Y69772*
X266774Y69459*
X264587*
Y73209*
X266774*
X267400Y72897*
X267712Y72272*
X267400Y71647*
X266774Y71335*
X264587*
X266774Y81335D02*
X267400Y81022D01*
X267712Y80397*
X267400Y79772*
X266774Y79459*
X264587*
Y83209*
X266774*
X267400Y82897*
X267712Y82272*
X267400Y81647*
X266774Y81335*
X264587*
X266774Y91335D02*
X267400Y91022D01*
X267712Y90397*
X267400Y89772*
X266774Y89459*
X264587*
Y93209*
X266774*
X267400Y92897*
X267712Y92272*
X267400Y91647*
X266774Y91335*
X264587*
X266774Y101335D02*
X267400Y101022D01*
X267712Y100397*
X267400Y99772*
X266774Y99459*
X264587*
Y103209*
X266774*
X267400Y102897*
X267712Y102272*
X267400Y101647*
X266774Y101335*
X264587*
X266774Y111335D02*
X267400Y111022D01*
X267712Y110397*
X267400Y109772*
X266774Y109459*
X264587*
Y113209*
X266774*
X267400Y112897*
X267712Y112272*
X267400Y111647*
X266774Y111335*
X264587*
X266774Y121335D02*
X267400Y121022D01*
X267712Y120397*
X267400Y119772*
X266774Y119459*
X264587*
Y123209*
X266774*
X267400Y122897*
X267712Y122272*
X267400Y121647*
X266774Y121335*
X264587*
X266774Y131335D02*
X267400Y131022D01*
X267712Y130397*
X267400Y129772*
X266774Y129459*
X264587*
Y133209*
X266774*
X267400Y132897*
X267712Y132272*
X267400Y131647*
X266774Y131335*
X264587*
X266774Y141335D02*
X267400Y141022D01*
X267712Y140397*
X267400Y139772*
X266774Y139459*
X264587*
Y143209*
X266774*
X267400Y142897*
X267712Y142272*
X267400Y141647*
X266774Y141335*
X264587*
X266774Y151335D02*
X267400Y151022D01*
X267712Y150397*
X267400Y149772*
X266774Y149459*
X264587*
Y153209*
X266774*
X267400Y152897*
X267712Y152272*
X267400Y151647*
X266774Y151335*
X264587*
X266774Y161335D02*
X267400Y161022D01*
X267712Y160397*
X267400Y159772*
X266774Y159459*
X264587*
Y163209*
X266774*
X267400Y162897*
X267712Y162272*
X267400Y161647*
X266774Y161335*
X264587*
D02*
D76*
X21241Y16199D03*
Y209113D03*
X24814Y192563D03*
X40414Y10963D03*
Y20963D03*
Y204113D03*
Y214113D03*
X50414Y10963D03*
Y20963D03*
Y204113D03*
Y214113D03*
X58014Y98563D03*
X59614Y117763D03*
X60414Y10963D03*
Y20963D03*
Y204113D03*
Y214113D03*
X64414Y153663D03*
X70414Y10963D03*
Y20963D03*
Y204113D03*
Y214113D03*
X77422Y63522D03*
Y73522D03*
Y83522D03*
Y93522D03*
Y103522D03*
Y113522D03*
Y123522D03*
Y133522D03*
Y143522D03*
Y153522D03*
X80414Y10963D03*
Y20963D03*
Y204113D03*
Y214113D03*
X87422Y63522D03*
Y73522D03*
Y83522D03*
Y93522D03*
Y103522D03*
Y113522D03*
Y123522D03*
Y133522D03*
Y143522D03*
Y153522D03*
X90414Y10963D03*
Y20963D03*
Y192963D03*
Y204113D03*
Y214113D03*
X100414Y10963D03*
Y20963D03*
Y204113D03*
Y214113D03*
X110414Y10963D03*
Y20963D03*
Y204113D03*
Y214113D03*
X110814Y193363D03*
X116814Y44563D03*
X120414Y10963D03*
Y20963D03*
Y160963D03*
Y204113D03*
Y214113D03*
X123214Y113522D03*
X130414Y10963D03*
Y20963D03*
Y204113D03*
Y214113D03*
X140414Y10963D03*
Y20963D03*
Y204113D03*
Y214113D03*
X150414Y10963D03*
Y20963D03*
Y204113D03*
Y214113D03*
X158014Y184563D03*
X160414Y10963D03*
Y20963D03*
Y204113D03*
Y214113D03*
X167614Y188963D03*
X170414Y10963D03*
Y20963D03*
Y204113D03*
Y214113D03*
X179614Y181763D03*
X180414Y10963D03*
Y20963D03*
Y204113D03*
Y214113D03*
X190414Y10963D03*
Y20963D03*
Y204113D03*
Y214113D03*
X200414Y10963D03*
Y20963D03*
Y204113D03*
Y214113D03*
X210414Y10963D03*
Y20963D03*
Y204113D03*
Y214113D03*
X220414Y10963D03*
Y20963D03*
Y204113D03*
Y214113D03*
X230414Y10963D03*
Y20963D03*
Y204113D03*
Y214113D03*
X244587Y63522D03*
Y73522D03*
Y83522D03*
Y93522D03*
Y103522D03*
Y113522D03*
Y123522D03*
Y133522D03*
Y143522D03*
Y153522D03*
X246814Y176563D03*
X249587Y16199D03*
Y209113D03*
X250414Y170163D03*
X252014Y42563D03*
X254587Y63522D03*
Y73522D03*
Y83522D03*
Y93522D03*
Y103522D03*
Y113522D03*
Y123522D03*
Y133522D03*
Y143522D03*
Y153522D03*
X0Y0D02*
M02*
