%FSLAX25Y25*%
%MOIN*%
G04 EasyPC Gerber Version 18.0.6 Build 3620 *
%ADD28R,0.05500X0.06000*%
%ADD70C,0.00500*%
%ADD21C,0.00600*%
%ADD22C,0.01000*%
%ADD146C,0.01600*%
%ADD75C,0.03200*%
%ADD90C,0.05500*%
%ADD29C,0.05600*%
%ADD144C,0.24409*%
%ADD145C,0.24803*%
X0Y0D02*
D02*
D70*
X9661Y8781D02*
Y3537D01*
X15876*
G75*
G02X9661Y8781I5364J12662*
G01*
G36*
Y3537*
X15876*
G75*
G02X9661Y8781I5364J12662*
G01*
G37*
Y23617D02*
G75*
G02X33564Y22302I11580J-7418D01*
G01*
Y25880*
X20447Y38996*
G75*
G02X19964Y40163I1167J1167*
G01*
Y139763*
G75*
G02X20447Y140930I1650J0*
G01*
X24206Y144689*
G75*
G02X25373Y145172I1167J-1167*
G01*
X73669*
G75*
G02X77422Y147622I3753J-1650*
G01*
G75*
G02Y139422J-4100*
G01*
G75*
G02X73669Y141872J4100*
G01*
X26056*
X23264Y139080*
Y130329*
G75*
G02X23647Y130930I1550J-566*
G01*
X27406Y134689*
G75*
G02X28573Y135172I1167J-1167*
G01*
X73669*
G75*
G02X77422Y137622I3753J-1650*
G01*
G75*
G02Y129422J-4100*
G01*
G75*
G02X73669Y131872J4100*
G01*
X29256*
X26464Y129080*
Y43646*
X41580Y28530*
G75*
G02X42064Y27363I-1167J-1167*
G01*
Y24716*
G75*
G02X43964Y23014I-1650J-3753*
G01*
Y28680*
X33247Y39396*
G75*
G02X32764Y40563I1167J1167*
G01*
Y115122*
G75*
G02X33247Y116289I1650J0*
G01*
X41647Y124689*
G75*
G02X42814Y125172I1167J-1167*
G01*
X73669*
G75*
G02X81444Y122726I3753J-1650*
G01*
X82447Y123730*
G75*
G02X83378Y124196I1167J-1167*
G01*
G75*
G02X91175Y125172I4044J-674*
G01*
X98255*
G75*
G02X99421Y124689I0J-1650*
G01*
X101580Y122530*
G75*
G02X102064Y121363I-1167J-1167*
G01*
Y24716*
G75*
G02X104364Y22062I-1650J-3753*
G01*
Y130280*
X102771Y131872*
X91175*
G75*
G02X87422Y129422I-3753J1650*
G01*
G75*
G02Y137622J4100*
G01*
G75*
G02X91175Y135172J-4100*
G01*
X103455*
G75*
G02X104621Y134689I0J-1650*
G01*
X107180Y132130*
G75*
G02X107664Y130963I-1167J-1167*
G01*
Y24004*
G75*
G02X108364Y24514I2750J-3041*
G01*
Y138280*
X104771Y141872*
X91175*
G75*
G02X87422Y139422I-3753J1650*
G01*
G75*
G02Y147622J4100*
G01*
G75*
G02X91175Y145172J-4100*
G01*
X105455*
G75*
G02X106621Y144689I0J-1650*
G01*
X111180Y140130*
G75*
G02X111664Y138963I-1167J-1167*
G01*
Y24868*
G75*
G02X114514Y20963I-1250J-3905*
G01*
G75*
G02X107664Y17922I-4100*
G01*
Y16563*
G75*
G02X107180Y15396I-1650J0*
G01*
X104235Y12450*
G75*
G02X103361Y8113I-3821J-1487*
G01*
X107466*
G75*
G02X106314Y10963I2948J2850*
G01*
G75*
G02X114514I4100*
G01*
G75*
G02X113361Y8113I-4100*
G01*
X117466*
G75*
G02X121901Y14784I2948J2850*
G01*
X124364Y17246*
Y19864*
G75*
G02X116314Y20963I-3950J1099*
G01*
G75*
G02X118764Y24716I4100*
G01*
Y32563*
G75*
G02X119247Y33730I1650J0*
G01*
X182764Y97246*
Y107363*
G75*
G02X183247Y108530I1650J0*
G01*
X235647Y160930*
G75*
G02X236814Y161413I1167J-1167*
G01*
X250814*
G75*
G02X251980Y160930I0J-1650*
G01*
X255362Y157548*
G75*
G02X258364Y155118I-775J-4026*
G01*
Y170680*
X240130Y188913*
X236580*
G75*
G02X237180Y188530I-566J-1550*
G01*
X246251Y179459*
G75*
G02X249764Y176563I563J-2896*
G01*
G75*
G02X243864I-2950*
G01*
G75*
G02X243918Y177126I2950J1*
G01*
X235330Y185713*
X175614*
G75*
G02X174447Y186196I0J1650*
G01*
X171664Y188980*
G75*
G02Y188963I-4049J-8*
G01*
G75*
G02X163564I-4050*
G01*
G75*
G02X167630Y193013I4050*
G01*
X166530Y194113*
X154014*
G75*
G02X152847Y194596I0J1650*
G01*
X149247Y198196*
G75*
G02X148764Y199363I1167J1167*
G01*
Y200359*
G75*
G02X146864Y202061I1650J3753*
G01*
Y196163*
G75*
G02X146380Y194996I-1650J0*
G01*
X143580Y192196*
G75*
G02X142414Y191713I-1167J1167*
G01*
X113259*
G75*
G02X107864Y193363I-2445J1650*
G01*
G75*
G02X113259Y195013I2950*
G01*
X141730*
X143564Y196846*
Y201488*
G75*
G02X136314Y204113I-3150J2624*
G01*
G75*
G02X143564Y206737I4100*
G01*
Y208913*
G75*
G02X144047Y210079I1650J0*
G01*
X146593Y212625*
G75*
G02X146314Y214113I3821J1487*
G01*
G75*
G02X154514I4100*
G01*
G75*
G02X148926Y210292I-4100*
G01*
X146864Y208229*
Y206164*
G75*
G02X154514Y204113I3550J-2051*
G01*
G75*
G02X152064Y200359I-4100*
G01*
Y200046*
X154697Y197413*
X167214*
G75*
G02X167705Y197338I0J-1650*
G01*
X164447Y200596*
G75*
G02X163964Y201763I1167J1167*
G01*
Y202061*
G75*
G02X156314Y204113I-3550J2051*
G01*
G75*
G02X163964Y206164I4100*
G01*
Y209480*
X162720Y210723*
G75*
G02X156314Y214113I-2307J3390*
G01*
G75*
G02X164514I4100*
G01*
G75*
G02X164485Y213626I-4099J1*
G01*
X166780Y211330*
G75*
G02X167264Y210163I-1167J-1167*
G01*
Y206737*
G75*
G02X174514Y204113I3150J-2624*
G01*
G75*
G02X169620Y200090I-4100*
G01*
X177497Y192213*
X240814*
G75*
G02X241980Y191730I0J-1650*
G01*
X261167Y172544*
Y202067*
G75*
G02X236032Y209113I-11580J7046*
G01*
G75*
G02X244263Y221578I13555*
G01*
X26565*
G75*
G02X34795Y209113I-5324J-12465*
G01*
G75*
G02X9661Y202067I-13555*
G01*
Y23617*
X23164Y167013D02*
Y169713D01*
X20714*
Y178413*
X28914*
Y169713*
X26464*
Y167013*
X28914*
Y158313*
X20714*
Y167013*
X23164*
Y187413D02*
Y190118D01*
G75*
G02X21864Y192563I1650J2445*
G01*
G75*
G02X27764I2950*
G01*
G75*
G02X26464Y190118I-2950*
G01*
Y187413*
X28914*
Y178713*
X20714*
Y187413*
X23164*
X28914Y151513D02*
Y149313D01*
X20714*
Y158013*
X28914*
Y155813*
X60864*
G75*
G02X68564Y153663I3550J-2150*
G01*
G75*
G02X60864Y151513I-4150*
G01*
X28914*
X36314Y214113D02*
G75*
G02X44514I4100D01*
G01*
G75*
G02X36314I-4100*
G01*
X36414Y204113D02*
G75*
G02X44414I4000D01*
G01*
G75*
G02X36414I-4000*
G01*
X46314D02*
G75*
G02X54514I4100D01*
G01*
G75*
G02X46314I-4100*
G01*
Y214113D02*
G75*
G02X54514I4100D01*
G01*
G75*
G02X46314I-4100*
G01*
X56314D02*
G75*
G02X64514I4100D01*
G01*
G75*
G02X56314I-4100*
G01*
X61901Y200292D02*
G75*
G02X56314Y204113I-1487J3821D01*
G01*
G75*
G02X64514I4100*
G01*
G75*
G02X64235Y202625I-4100J0*
G01*
X95047Y171813*
X247969*
G75*
G02X253364Y170163I2445J-1650*
G01*
G75*
G02X247969Y168513I-2950*
G01*
X94363*
G75*
G02X93197Y168996I0J1650*
G01*
X61901Y200292*
X73164Y201072D02*
G75*
G02X66314Y204113I-2750J3041D01*
G01*
G75*
G02X73164Y207154I4100*
G01*
Y211072*
G75*
G02X66314Y214113I-2750J3041*
G01*
G75*
G02X74503Y214407I4100*
G01*
X75980Y212930*
G75*
G02X76464Y211763I-1167J-1167*
G01*
Y205211*
G75*
G02X82764Y207472I3950J-1099*
G01*
Y210753*
G75*
G02X76314Y214113I-2350J3360*
G01*
G75*
G02X84514I4100*
G01*
G75*
G02X84512Y213998I-4100J-1*
G01*
X85580Y212930*
G75*
G02X86064Y211763I-1167J-1167*
G01*
Y193246*
X87915Y191396*
G75*
G02X88764Y195408I2499J1567*
G01*
Y200359*
G75*
G02X86314Y204113I1650J3753*
G01*
G75*
G02X94514I4100*
G01*
G75*
G02X92064Y200359I-4100*
G01*
Y195408*
G75*
G02X88846Y190464I-1650J-2445*
G01*
X93097Y186213*
X155569*
G75*
G02X160730Y183413I2445J-1650*
G01*
X177169*
G75*
G02X182564Y181763I2445J-1650*
G01*
G75*
G02X177169Y180113I-2950*
G01*
X88014*
G75*
G02X86847Y180596I0J1650*
G01*
X73647Y193796*
G75*
G02X73164Y194963I1167J1167*
G01*
Y201072*
X77422Y149422D02*
G75*
G02Y157622J4100D01*
G01*
G75*
G02Y149422J-4100*
G01*
X86314Y214113D02*
G75*
G02X94514I4100D01*
G01*
G75*
G02X86314I-4100*
G01*
X87422Y149422D02*
G75*
G02Y157622J4100D01*
G01*
G75*
G02Y149422J-4100*
G01*
X96314Y204113D02*
G75*
G02X104514I4100D01*
G01*
G75*
G02X96314I-4100*
G01*
Y214113D02*
G75*
G02X104514I4100D01*
G01*
G75*
G02X96314I-4100*
G01*
X106314Y204113D02*
G75*
G02X114514I4100D01*
G01*
G75*
G02X106314I-4100*
G01*
Y214113D02*
G75*
G02X114514I4100D01*
G01*
G75*
G02X106314I-4100*
G01*
X116314D02*
G75*
G02X124514I4100D01*
G01*
G75*
G02X116314I-4100*
G01*
X116364Y160963D02*
G75*
G02X124464I4050D01*
G01*
G75*
G02X116364I-4050*
G01*
X116414Y204113D02*
G75*
G02X124414I4000D01*
G01*
G75*
G02X116414I-4000*
G01*
X117804Y48593D02*
X121064Y51854D01*
Y59613*
X119114*
Y68313*
X127314*
Y59613*
X125364*
Y50963*
G75*
G02X124734Y49443I-2150J0*
G01*
X120844Y45553*
G75*
G02X120964Y44563I-4031J-989*
G01*
G75*
G02X112664I-4150*
G01*
G75*
G02X117804Y48593I4150*
G01*
X121564Y77313D02*
Y79613D01*
X119114*
Y88313*
X127314*
Y79613*
X124864*
Y77313*
X127314*
Y68613*
X119114*
Y77313*
X121564*
Y97313D02*
Y111077D01*
G75*
G02X120264Y113522I1650J2445*
G01*
G75*
G02X126164I2950*
G01*
G75*
G02X124864Y111077I-2950*
G01*
Y97313*
X127314*
Y88613*
X119114*
Y97313*
X121564*
X126314Y204113D02*
G75*
G02X134514I4100D01*
G01*
G75*
G02X126314I-4100*
G01*
Y214113D02*
G75*
G02X134514I4100D01*
G01*
G75*
G02X126314I-4100*
G01*
X136314D02*
G75*
G02X144514I4100D01*
G01*
G75*
G02X136314I-4100*
G01*
X166314D02*
G75*
G02X174514I4100D01*
G01*
G75*
G02X166314I-4100*
G01*
X176314Y204113D02*
G75*
G02X184514I4100D01*
G01*
G75*
G02X176314I-4100*
G01*
Y214113D02*
G75*
G02X184514I4100D01*
G01*
G75*
G02X176314I-4100*
G01*
X186314Y204113D02*
G75*
G02X194514I4100D01*
G01*
G75*
G02X186314I-4100*
G01*
Y214113D02*
G75*
G02X194514I4100D01*
G01*
G75*
G02X186314I-4100*
G01*
X196314Y204113D02*
G75*
G02X204514I4100D01*
G01*
G75*
G02X196314I-4100*
G01*
Y214113D02*
G75*
G02X204514I4100D01*
G01*
G75*
G02X196314I-4100*
G01*
X206314Y204113D02*
G75*
G02X214514I4100D01*
G01*
G75*
G02X206314I-4100*
G01*
Y214113D02*
G75*
G02X214514I4100D01*
G01*
G75*
G02X206314I-4100*
G01*
X216314Y204113D02*
G75*
G02X224514I4100D01*
G01*
G75*
G02X216314I-4100*
G01*
Y214113D02*
G75*
G02X224514I4100D01*
G01*
G75*
G02X216314I-4100*
G01*
X226314Y204113D02*
G75*
G02X234514I4100D01*
G01*
G75*
G02X226314I-4100*
G01*
Y214113D02*
G75*
G02X234514I4100D01*
G01*
G75*
G02X226314I-4100*
G01*
X9661Y168363D02*
G36*
Y160963D01*
X20714*
Y167013*
X23164*
Y168363*
X9661*
G37*
X23164D02*
G36*
Y169713D01*
X20714*
Y178413*
X28914*
Y169713*
X26464*
Y168363*
X248077*
G75*
G02X247969Y168513I2336J1800*
G01*
X94363*
G75*
G02X93197Y168996I0J1650*
G01*
X75080Y187113*
X28914*
Y178713*
X20714*
Y187113*
X9661*
Y168363*
X23164*
G37*
X26464D02*
G36*
Y167013D01*
X28914*
Y160963*
X116364*
G75*
G02X124464I4050*
G01*
X235682*
G75*
G02X236814Y161413I1132J-1200*
G01*
X250814*
G75*
G02X251980Y160930I0J-1650*
G01*
X255362Y157548*
G75*
G02X258364Y155118I-775J-4026*
G01*
Y168363*
X252751*
G75*
G02X248077I-2337J1800*
G01*
X26464*
G37*
X258364D02*
G36*
Y170680D01*
X240130Y188913*
X236580*
G75*
G02X237180Y188530I-566J-1550*
G01*
X246251Y179459*
G75*
G02X249764Y176563I563J-2896*
G01*
G75*
G02X243864I-2950*
G01*
G75*
G02X243918Y177126I2950J1*
G01*
X235330Y185713*
X175614*
G75*
G02X174447Y186196I0J1650*
G01*
X171664Y188980*
G75*
G02Y188963I-4049J-8*
G01*
G75*
G02X164011Y187113I-4050*
G01*
X159497*
G75*
G02X160730Y183413I-1483J-2550*
G01*
X177169*
G75*
G02X182564Y181763I2445J-1650*
G01*
G75*
G02X177169Y180113I-2950*
G01*
X88014*
G75*
G02X86847Y180596I0J1650*
G01*
X80331Y187113*
X79747*
X95047Y171813*
X247969*
G75*
G02X253364Y170163I2445J-1650*
G01*
G75*
G02X252751Y168363I-2950J0*
G01*
X258364*
G37*
X20714Y187113D02*
G36*
Y187413D01*
X23164*
Y190118*
G75*
G02X21864Y192563I1650J2445*
G01*
G75*
G02X27764I2950*
G01*
G75*
G02X26464Y190118I-2950*
G01*
Y187413*
X28914*
Y187113*
X75080*
X61901Y200292*
G75*
G02X56314Y204113I-1487J3821*
G01*
X54514*
G75*
G02X46314I-4100*
G01*
X44414*
G75*
G02X36414I-4000*
G01*
X33839*
G75*
G02X9661Y202067I-12599J5000*
G01*
Y187113*
X20714*
G37*
X80331D02*
G36*
X73647Y193796D01*
G75*
G02X73164Y194963I1167J1167*
G01*
Y201072*
G75*
G02X66314Y204113I-2750J3041*
G01*
X64514*
G75*
G02X64235Y202625I-4100J0*
G01*
X79747Y187113*
X80331*
G37*
X164011D02*
G36*
G75*
G02X163564Y188963I3603J1850D01*
G01*
G75*
G02X167630Y193013I4050*
G01*
X166530Y194113*
X154014*
G75*
G02X152847Y194596I0J1650*
G01*
X149247Y198196*
G75*
G02X148764Y199363I1167J1167*
G01*
Y200359*
G75*
G02X146864Y202061I1650J3753*
G01*
Y196163*
G75*
G02X146380Y194996I-1650J0*
G01*
X143580Y192196*
G75*
G02X142414Y191713I-1167J1167*
G01*
X113259*
G75*
G02X107864Y193363I-2445J1650*
G01*
G75*
G02X113259Y195013I2950*
G01*
X141730*
X143564Y196846*
Y201488*
G75*
G02X136314Y204113I-3150J2624*
G01*
X134514*
G75*
G02X126314I-4100*
G01*
X124414*
G75*
G02X116414I-4000*
G01*
X114514*
G75*
G02X106314I-4100*
G01*
X104514*
G75*
G02X96314I-4100*
G01*
X94514*
G75*
G02X92064Y200359I-4100*
G01*
Y195408*
G75*
G02X88846Y190464I-1650J-2445*
G01*
X93097Y186213*
X155569*
G75*
G02X159497Y187113I2445J-1650*
G01*
X164011*
G37*
X9661Y153663D02*
G36*
Y23617D01*
G75*
G02X33564Y22302I11580J-7418*
G01*
Y25880*
X20447Y38996*
G75*
G02X19964Y40163I1167J1167*
G01*
Y139763*
G75*
G02X20447Y140930I1650J0*
G01*
X24206Y144689*
G75*
G02X25373Y145172I1167J-1167*
G01*
X73669*
G75*
G02X77422Y147622I3753J-1650*
G01*
G75*
G02Y139422J-4100*
G01*
G75*
G02X73669Y141872J4100*
G01*
X26056*
X23264Y139080*
Y130329*
G75*
G02X23647Y130930I1550J-566*
G01*
X27406Y134689*
G75*
G02X28573Y135172I1167J-1167*
G01*
X73669*
G75*
G02X77422Y137622I3753J-1650*
G01*
G75*
G02Y129422J-4100*
G01*
G75*
G02X73669Y131872J4100*
G01*
X29256*
X26464Y129080*
Y43646*
X41580Y28530*
G75*
G02X42064Y27363I-1167J-1167*
G01*
Y24716*
G75*
G02X43964Y23014I-1650J-3753*
G01*
Y28680*
X33247Y39396*
G75*
G02X32764Y40563I1167J1167*
G01*
Y115122*
G75*
G02X33247Y116289I1650J0*
G01*
X41647Y124689*
G75*
G02X42814Y125172I1167J-1167*
G01*
X73669*
G75*
G02X81444Y122726I3753J-1650*
G01*
X82447Y123730*
G75*
G02X83378Y124196I1167J-1167*
G01*
G75*
G02X91175Y125172I4044J-674*
G01*
X98255*
G75*
G02X99421Y124689I0J-1650*
G01*
X101580Y122530*
G75*
G02X102064Y121363I-1167J-1167*
G01*
Y24716*
G75*
G02X104364Y22062I-1650J-3753*
G01*
Y130280*
X102771Y131872*
X91175*
G75*
G02X87422Y129422I-3753J1650*
G01*
G75*
G02Y137622J4100*
G01*
G75*
G02X91175Y135172J-4100*
G01*
X103455*
G75*
G02X104621Y134689I0J-1650*
G01*
X107180Y132130*
G75*
G02X107664Y130963I-1167J-1167*
G01*
Y24004*
G75*
G02X108364Y24514I2750J-3041*
G01*
Y138280*
X104771Y141872*
X91175*
G75*
G02X87422Y139422I-3753J1650*
G01*
G75*
G02Y147622J4100*
G01*
G75*
G02X91175Y145172J-4100*
G01*
X105455*
G75*
G02X106621Y144689I0J-1650*
G01*
X111180Y140130*
G75*
G02X111664Y138963I-1167J-1167*
G01*
Y102543*
X121564*
Y111077*
G75*
G02X120264Y113522I1650J2445*
G01*
G75*
G02X126164I2950*
G01*
G75*
G02X124864Y111077I-2950*
G01*
Y102543*
X182764*
Y107363*
G75*
G02X183247Y108530I1650J0*
G01*
X228381Y153663*
X91519*
G75*
G02X87422Y149422I-4098J-141*
G01*
G75*
G02X83324Y153663J4100*
G01*
X81519*
G75*
G02X77422Y149422I-4098J-141*
G01*
G75*
G02X73324Y153663J4100*
G01*
X68564*
G75*
G02X60864Y151513I-4150*
G01*
X28914*
Y149313*
X20714*
Y153663*
X9661*
G37*
X20714D02*
G36*
Y158013D01*
X28914*
Y155813*
X60864*
G75*
G02X68564Y153663I3550J-2150*
G01*
X73324*
G75*
G02X77422Y157622I4098J-141*
G01*
G75*
G02X81519Y153663J-4100*
G01*
X83324*
G75*
G02X87422Y157622I4098J-141*
G01*
G75*
G02X91519Y153663J-4100*
G01*
X228381*
X235647Y160930*
G75*
G02X235682Y160963I1163J-1170*
G01*
X124464*
G75*
G02X116364I-4050*
G01*
X28914*
Y158313*
X20714*
Y160963*
X9661*
Y153663*
X20714*
G37*
X33839Y214113D02*
G36*
G75*
G02X34795Y209113I-12599J-5000D01*
G01*
G75*
G02X33839Y204113I-13555*
G01*
X36414*
G75*
G02X44414I4000*
G01*
X46314*
G75*
G02X54514I4100*
G01*
X56314*
G75*
G02X64514I4100*
G01*
X66314*
G75*
G02X73164Y207154I4100*
G01*
Y211072*
G75*
G02X66314Y214113I-2750J3041*
G01*
X64514*
G75*
G02X56314I-4100*
G01*
X54514*
G75*
G02X46314I-4100*
G01*
X44514*
G75*
G02X36314I-4100*
G01*
X33839*
G37*
X36314D02*
G36*
G75*
G02X44514I4100D01*
G01*
X46314*
G75*
G02X54514I4100*
G01*
X56314*
G75*
G02X64514I4100*
G01*
X66314*
G75*
G02X74503Y214407I4100*
G01*
X75980Y212930*
G75*
G02X76464Y211763I-1167J-1167*
G01*
Y205211*
G75*
G02X82764Y207472I3950J-1099*
G01*
Y210753*
G75*
G02X76314Y214113I-2350J3360*
G01*
G75*
G02X84514I4100*
G01*
X86314*
G75*
G02X94514I4100*
G01*
X96314*
G75*
G02X104514I4100*
G01*
X106314*
G75*
G02X114514I4100*
G01*
X116314*
G75*
G02X124514I4100*
G01*
X126314*
G75*
G02X134514I4100*
G01*
X136314*
G75*
G02X144514I4100*
G01*
X146314*
G75*
G02X154514I4100*
G01*
G75*
G02X148926Y210292I-4100*
G01*
X146864Y208229*
Y206164*
G75*
G02X154514Y204113I3550J-2051*
G01*
G75*
G02X152064Y200359I-4100*
G01*
Y200046*
X154697Y197413*
X167214*
G75*
G02X167705Y197338I0J-1650*
G01*
X164447Y200596*
G75*
G02X163964Y201763I1167J1167*
G01*
Y202061*
G75*
G02X156314Y204113I-3550J2051*
G01*
G75*
G02X163964Y206164I4100*
G01*
Y209480*
X162720Y210723*
G75*
G02X156314Y214113I-2307J3390*
G01*
G75*
G02X164514I4100*
G01*
X166314*
G75*
G02X174514I4100*
G01*
X176314*
G75*
G02X184514I4100*
G01*
X186314*
G75*
G02X194514I4100*
G01*
X196314*
G75*
G02X204514I4100*
G01*
X206314*
G75*
G02X214514I4100*
G01*
X216314*
G75*
G02X224514I4100*
G01*
X226314*
G75*
G02X234514I4100*
G01*
X236988*
G75*
G02X244263Y221578I12599J-5000*
G01*
X26565*
G75*
G02X33839Y214113I-5324J-12465*
G01*
X36314*
G37*
X84514D02*
G36*
G75*
G02X84512Y213998I-4100J-1D01*
G01*
X85580Y212930*
G75*
G02X86064Y211763I-1167J-1167*
G01*
Y193246*
X87915Y191396*
G75*
G02X88764Y195408I2499J1567*
G01*
Y200359*
G75*
G02X86314Y204113I1650J3753*
G01*
G75*
G02X94514I4100*
G01*
X96314*
G75*
G02X104514I4100*
G01*
X106314*
G75*
G02X114514I4100*
G01*
X116414*
G75*
G02X124414I4000*
G01*
X126314*
G75*
G02X134514I4100*
G01*
X136314*
G75*
G02X143564Y206737I4100*
G01*
Y208913*
G75*
G02X144047Y210079I1650J0*
G01*
X146593Y212625*
G75*
G02X146314Y214113I3821J1487*
G01*
X144514*
G75*
G02X136314I-4100*
G01*
X134514*
G75*
G02X126314I-4100*
G01*
X124514*
G75*
G02X116314I-4100*
G01*
X114514*
G75*
G02X106314I-4100*
G01*
X104514*
G75*
G02X96314I-4100*
G01*
X94514*
G75*
G02X86314I-4100*
G01*
X84514*
G37*
X164514D02*
G36*
G75*
G02X164485Y213626I-4099J1D01*
G01*
X166780Y211330*
G75*
G02X167264Y210163I-1167J-1167*
G01*
Y206737*
G75*
G02X174514Y204113I3150J-2624*
G01*
X176314*
G75*
G02X184514I4100*
G01*
X186314*
G75*
G02X194514I4100*
G01*
X196314*
G75*
G02X204514I4100*
G01*
X206314*
G75*
G02X214514I4100*
G01*
X216314*
G75*
G02X224514I4100*
G01*
X226314*
G75*
G02X234514I4100*
G01*
X236988*
G75*
G02X236032Y209113I12598J5000*
G01*
G75*
G02X236988Y214113I13554*
G01*
X234514*
G75*
G02X226314I-4100*
G01*
X224514*
G75*
G02X216314I-4100*
G01*
X214514*
G75*
G02X206314I-4100*
G01*
X204514*
G75*
G02X196314I-4100*
G01*
X194514*
G75*
G02X186314I-4100*
G01*
X184514*
G75*
G02X176314I-4100*
G01*
X174514*
G75*
G02X166314I-4100*
G01*
X164514*
G37*
X174514Y204113D02*
G36*
G75*
G02X169620Y200090I-4100D01*
G01*
X177497Y192213*
X240814*
G75*
G02X241980Y191730I0J-1650*
G01*
X261167Y172544*
Y202067*
G75*
G02X236988Y204113I-11580J7046*
G01*
X234514*
G75*
G02X226314I-4100*
G01*
X224514*
G75*
G02X216314I-4100*
G01*
X214514*
G75*
G02X206314I-4100*
G01*
X204514*
G75*
G02X196314I-4100*
G01*
X194514*
G75*
G02X186314I-4100*
G01*
X184514*
G75*
G02X176314I-4100*
G01*
X174514*
G37*
X111664Y54363D02*
G36*
Y24868D01*
G75*
G02X114514Y20963I-1250J-3905*
G01*
G75*
G02X107664Y17922I-4100*
G01*
Y16563*
G75*
G02X107180Y15396I-1650J0*
G01*
X104235Y12450*
G75*
G02X103361Y8113I-3821J-1487*
G01*
X107466*
G75*
G02X106314Y10963I2948J2850*
G01*
G75*
G02X114514I4100*
G01*
G75*
G02X113361Y8113I-4100*
G01*
X117466*
G75*
G02X121901Y14784I2948J2850*
G01*
X124364Y17246*
Y19864*
G75*
G02X116314Y20963I-3950J1099*
G01*
G75*
G02X118764Y24716I4100*
G01*
Y32563*
G75*
G02X119247Y33730I1650J0*
G01*
X139881Y54363*
X125364*
Y50963*
G75*
G02X124734Y49443I-2150J0*
G01*
X120844Y45553*
G75*
G02X120964Y44563I-4031J-989*
G01*
G75*
G02X112664I-4150*
G01*
G75*
G02X117804Y48593I4150*
G01*
X121064Y51854*
Y54363*
X111664*
G37*
X121064D02*
G36*
Y59613D01*
X119114*
Y68313*
X127314*
Y59613*
X125364*
Y54363*
X139881*
X163980Y78463*
X124864*
Y77313*
X127314*
Y68613*
X119114*
Y77313*
X121564*
Y78463*
X111664*
Y54363*
X121064*
G37*
X121564Y78463D02*
G36*
Y79613D01*
X119114*
Y88313*
X127314*
Y79613*
X124864*
Y78463*
X163980*
X182764Y97246*
Y102543*
X124864*
Y97313*
X127314*
Y88613*
X119114*
Y97313*
X121564*
Y102543*
X111664*
Y78463*
X121564*
G37*
X9661Y216159D02*
G75*
G02X15917Y221578I11579J-7046D01*
G01*
X9661*
Y216159*
G36*
G75*
G02X15917Y221578I11579J-7046*
G01*
X9661*
Y216159*
G37*
X23264Y42397D02*
Y40846D01*
X36380Y27730*
G75*
G02X36864Y26563I-1167J-1167*
G01*
Y23014*
G75*
G02X38764Y24716I3550J-2051*
G01*
Y26680*
X23647Y41796*
G75*
G02X23264Y42397I1166J1167*
G01*
G36*
Y40846*
X36380Y27730*
G75*
G02X36864Y26563I-1167J-1167*
G01*
Y23014*
G75*
G02X38764Y24716I3550J-2051*
G01*
Y26680*
X23647Y41796*
G75*
G02X23264Y42397I1166J1167*
G01*
G37*
X26605Y3537D02*
X244223D01*
G75*
G02X235835Y16199I5364J12662*
G01*
G75*
G02X261167Y23617I13752*
G01*
Y137768*
X258408Y135009*
G75*
G02X250834Y131872I-3821J-1487*
G01*
X250655*
G75*
G02X249488Y132356I0J1650*
G01*
X248672Y133171*
G75*
G02X242811Y129827I-4085J351*
G01*
X203664Y90680*
Y80163*
G75*
G02X203180Y78996I-1650J0*
G01*
X157664Y33480*
Y24004*
G75*
G02X158764Y24716I2750J-3041*
G01*
Y30163*
G75*
G02X159247Y31330I1650J0*
G01*
X182447Y54530*
G75*
G02X183614Y55013I1167J-1167*
G01*
X186130*
X205164Y74046*
Y87763*
G75*
G02X205647Y88930I1650J0*
G01*
X240495Y123778*
G75*
G02X244587Y127622I4092J-256*
G01*
G75*
G02X247008Y120213J-4100*
G01*
X249330*
X250883Y121765*
G75*
G02X254587Y127622I3704J1757*
G01*
G75*
G02Y119422J-4100*
G01*
G75*
G02X253386Y119602I0J4100*
G01*
X251180Y117396*
G75*
G02X250014Y116913I-1167J1167*
G01*
X246892*
G75*
G02X244587Y109422I-2305J-3391*
G01*
G75*
G02X241457Y110873J4100*
G01*
X215664Y85080*
Y62963*
G75*
G02X215180Y61796I-1650J0*
G01*
X187980Y34596*
G75*
G02X186814Y34113I-1167J1167*
G01*
X178297*
X172064Y27880*
Y24716*
G75*
G02X173564Y23587I-1650J-3753*
G01*
Y26163*
G75*
G02X174047Y27330I1650J0*
G01*
X178047Y31330*
G75*
G02X179214Y31813I1167J-1167*
G01*
X187730*
X217164Y61246*
Y82563*
G75*
G02X217647Y83730I1650J0*
G01*
X238606Y104689*
G75*
G02X239773Y105172I1167J-1167*
G01*
X240834*
G75*
G02X244587Y107622I3753J-1650*
G01*
G75*
G02X247008Y100213J-4100*
G01*
X248944*
X250766Y102035*
G75*
G02X254587Y107622I3821J1487*
G01*
G75*
G02Y99422J-4100*
G01*
G75*
G02X253100Y99701I0J4100*
G01*
X250794Y97396*
G75*
G02X249628Y96913I-1167J1167*
G01*
X246892*
G75*
G02X247476Y90613I-2305J-3391*
G01*
X248530*
X250578Y92661*
G75*
G02X254587Y97622I4009J861*
G01*
G75*
G02Y89422J-4100*
G01*
G75*
G02X252549Y89965J4100*
G01*
X250380Y87796*
G75*
G02X249214Y87313I-1167J1167*
G01*
X246149*
G75*
G02X247008Y80213I-1562J-3791*
G01*
X247730*
X250520Y83003*
G75*
G02X254587Y87622I4067J519*
G01*
G75*
G02Y79422J-4100*
G01*
G75*
G02X252302Y80118J4100*
G01*
X249580Y77396*
G75*
G02X248414Y76913I-1167J1167*
G01*
X246892*
G75*
G02X244587Y69422I-2305J-3391*
G01*
G75*
G02X241281Y71097J4100*
G01*
X239664Y69480*
Y39763*
G75*
G02X239180Y38596I-1650J0*
G01*
X235580Y34996*
G75*
G02X234414Y34513I-1167J1167*
G01*
X227897*
X227597Y34213*
X236130*
X242937Y41020*
Y59769*
G75*
G02X244587Y67622I1650J3753*
G01*
G75*
G02X246237Y59769J-4100*
G01*
Y40336*
G75*
G02X245754Y39170I-1650J0*
G01*
X237980Y31396*
G75*
G02X236814Y30913I-1167J1167*
G01*
X227097*
X222064Y25880*
Y24716*
G75*
G02X224514Y20963I-1650J-3753*
G01*
G75*
G02X217264Y18339I-4100*
G01*
Y16163*
G75*
G02X216780Y14996I-1650J0*
G01*
X214235Y12450*
G75*
G02X213361Y8113I-3821J-1487*
G01*
X217607*
G75*
G02X216414Y10963I2807J2850*
G01*
G75*
G02X224414I4000*
G01*
G75*
G02X223220Y8113I-4000*
G01*
X225773*
X226761Y9101*
G75*
G02X226314Y10963I3653J1862*
G01*
G75*
G02X234514I4100*
G01*
G75*
G02X230609Y6868I-4100*
G01*
X228184Y4443*
G75*
G02X226664Y3813I-1520J1520*
G01*
X185414*
G75*
G02X183893Y4443I0J2150*
G01*
X181362Y6974*
G75*
G02X180609Y6868I-947J3989*
G01*
X178184Y4443*
G75*
G02X176664Y3813I-1520J1520*
G01*
X135414*
G75*
G02X133893Y4443I0J2150*
G01*
X131362Y6974*
G75*
G02X130609Y6868I-947J3989*
G01*
X128184Y4443*
G75*
G02X126664Y3813I-1520J1520*
G01*
X85414*
G75*
G02X83893Y4443I0J2150*
G01*
X81362Y6974*
G75*
G02X78264Y14454I-948J3989*
G01*
Y17472*
G75*
G02X76864Y18912I2150J3491*
G01*
Y15763*
G75*
G02X76380Y14596I-1650J0*
G01*
X74235Y12450*
G75*
G02X74514Y10963I-3821J-1487*
G01*
G75*
G02X66314I-4100*
G01*
G75*
G02X71901Y14784I4100*
G01*
X73564Y16446*
Y18339*
G75*
G02X66314Y20963I-3150J2624*
G01*
G75*
G02X69164Y24868I4100*
G01*
Y78963*
G75*
G02X69647Y80130I1650J0*
G01*
X73332Y83815*
G75*
G02X77422Y87622I4089J-293*
G01*
G75*
G02Y79422J-4100*
G01*
G75*
G02X74669Y80484I0J4100*
G01*
X72464Y78280*
Y73346*
X73391Y74274*
G75*
G02X77422Y77622I4030J-752*
G01*
G75*
G02Y69422J-4100*
G01*
G75*
G02X74864Y70318J4100*
G01*
Y66726*
G75*
G02X77422Y67622I2558J-3204*
G01*
G75*
G02X79572Y60031J-4100*
G01*
Y24976*
G75*
G02X82564Y17472I842J-4013*
G01*
Y14454*
G75*
G02X84403Y10015I-2151J-3492*
G01*
X86304Y8113*
X87466*
G75*
G02X91901Y14784I2948J2850*
G01*
X93964Y16846*
Y18912*
G75*
G02X86593Y22450I-3550J2052*
G01*
X86255Y22789*
G75*
G02X85772Y23955I1167J1167*
G01*
Y59769*
G75*
G02X87422Y67622I1650J3753*
G01*
G75*
G02X91164Y65197J-4100*
G01*
Y71847*
G75*
G02X87422Y69422I-3742J1675*
G01*
G75*
G02Y77622J4100*
G01*
G75*
G02X91164Y75197J-4100*
G01*
Y81847*
G75*
G02X87422Y79422I-3742J1675*
G01*
G75*
G02Y87622J4100*
G01*
G75*
G02X91164Y85197J-4100*
G01*
Y91847*
G75*
G02X87422Y89422I-3742J1675*
G01*
G75*
G02Y97622J4100*
G01*
G75*
G02X91164Y95197J-4100*
G01*
Y101847*
G75*
G02X86473Y99533I-3743J1676*
G01*
X83983Y97043*
G75*
G02X82463Y96413I-1520J1520*
G01*
X80329*
G75*
G02X77422Y89422I-2907J-2891*
G01*
G75*
G02X74514Y96413J4100*
G01*
X61563*
G75*
G02X60164Y95013I-3550J2150*
G01*
Y25056*
G75*
G02X64514Y20963I250J-4093*
G01*
G75*
G02X56314I-4100*
G01*
G75*
G02X56426Y21914I4100*
G01*
G75*
G02X55864Y23363I1588J1449*
G01*
Y95013*
G75*
G02X53864Y98563I2150J3550*
G01*
G75*
G02X61563Y100713I4150*
G01*
X74435*
G75*
G02X77422Y107622I2987J2809*
G01*
G75*
G02X80408Y100713J-4100*
G01*
X81572*
X83433Y102574*
G75*
G02X91164Y105197I3989J948*
G01*
Y109480*
X90167Y110477*
G75*
G02X87422Y109422I-2745J3045*
G01*
G75*
G02Y117622J4100*
G01*
G75*
G02X91512Y113798J-4100*
G01*
X93980Y111330*
G75*
G02X94464Y110163I-1167J-1167*
G01*
Y29246*
X96780Y26930*
G75*
G02X97264Y25763I-1167J-1167*
G01*
Y23587*
G75*
G02X98764Y24716I3150J-2624*
G01*
Y120680*
X97571Y121872*
X91175*
G75*
G02X84276Y120892I-3753J1650*
G01*
X80052Y116667*
G75*
G02X77422Y109422I-2630J-3145*
G01*
G75*
G02X73669Y111872J4100*
G01*
X48297*
X47664Y111239*
Y32846*
X51580Y28930*
G75*
G02X52064Y27763I-1167J-1167*
G01*
Y24716*
G75*
G02X54514Y20963I-1650J-3753*
G01*
G75*
G02X47264Y18339I-4100*
G01*
Y16846*
X49224Y14887*
G75*
G02X54514Y10963I1190J-3924*
G01*
G75*
G02X46314I-4100*
G01*
G75*
G02X46714Y12730I4100*
G01*
X44447Y14996*
G75*
G02X43964Y16163I1167J1167*
G01*
Y18912*
G75*
G02X36864I-3550J2051*
G01*
Y16846*
X38926Y14784*
G75*
G02X44514Y10963I1487J-3821*
G01*
G75*
G02X36314I-4100*
G01*
G75*
G02X36593Y12450I4100J0*
G01*
X34846Y14198*
G75*
G02X26605Y3537I-13605J2002*
G01*
X56314Y10963D02*
G75*
G02X64514I4100D01*
G01*
G75*
G02X56314I-4100*
G01*
X226314Y20963D02*
G75*
G02X234514I4100D01*
G01*
G75*
G02X226314I-4100*
G01*
X247964Y42563D02*
G75*
G02X256064I4050D01*
G01*
G75*
G02X247964I-4050*
G01*
X254587Y59522D02*
G75*
G02Y67522J4000D01*
G01*
G75*
G02Y59522J-4000*
G01*
Y69422D02*
G75*
G02Y77622J4100D01*
G01*
G75*
G02Y69422J-4100*
G01*
Y109422D02*
G75*
G02Y117622J4100D01*
G01*
G75*
G02Y109422J-4100*
G01*
X54514Y10963D02*
G36*
G75*
G02X46314I-4100D01*
G01*
G75*
G02X46714Y12730I4100*
G01*
X44447Y14996*
G75*
G02X43964Y16163I1167J1167*
G01*
Y18912*
G75*
G02X36864I-3550J2051*
G01*
Y16846*
X38926Y14784*
G75*
G02X44514Y10963I1487J-3821*
G01*
G75*
G02X36314I-4100*
G01*
G75*
G02X36593Y12450I4100J0*
G01*
X34846Y14198*
G75*
G02X26605Y3537I-13605J2002*
G01*
X244223*
G75*
G02X235835Y16199I5364J12662*
G01*
G75*
G02X236687Y20963I13751*
G01*
X234514*
G75*
G02X226314I-4100*
G01*
X224514*
G75*
G02X217264Y18339I-4100*
G01*
Y16163*
G75*
G02X216780Y14996I-1650J0*
G01*
X214235Y12450*
G75*
G02X213361Y8113I-3821J-1487*
G01*
X217607*
G75*
G02X216414Y10963I2807J2850*
G01*
G75*
G02X224414I4000*
G01*
G75*
G02X223220Y8113I-4000*
G01*
X225773*
X226761Y9101*
G75*
G02X226314Y10963I3653J1862*
G01*
G75*
G02X234514I4100*
G01*
G75*
G02X230609Y6868I-4100*
G01*
X228184Y4443*
G75*
G02X226664Y3813I-1520J1520*
G01*
X185414*
G75*
G02X183893Y4443I0J2150*
G01*
X181362Y6974*
G75*
G02X180609Y6868I-947J3989*
G01*
X178184Y4443*
G75*
G02X176664Y3813I-1520J1520*
G01*
X135414*
G75*
G02X133893Y4443I0J2150*
G01*
X131362Y6974*
G75*
G02X130609Y6868I-947J3989*
G01*
X128184Y4443*
G75*
G02X126664Y3813I-1520J1520*
G01*
X85414*
G75*
G02X83893Y4443I0J2150*
G01*
X81362Y6974*
G75*
G02X78264Y14454I-948J3989*
G01*
Y17472*
G75*
G02X76864Y18912I2150J3491*
G01*
Y15763*
G75*
G02X76380Y14596I-1650J0*
G01*
X74235Y12450*
G75*
G02X74514Y10963I-3821J-1487*
G01*
G75*
G02X66314I-4100*
G01*
X64514*
G75*
G02X56314I-4100*
G01*
X54514*
G37*
X56314D02*
G36*
G75*
G02X64514I4100D01*
G01*
X66314*
G75*
G02X71901Y14784I4100*
G01*
X73564Y16446*
Y18339*
G75*
G02X66314Y20963I-3150J2624*
G01*
G75*
G02X69164Y24868I4100*
G01*
Y78963*
G75*
G02X69647Y80130I1650J0*
G01*
X73332Y83815*
G75*
G02X77422Y87622I4089J-293*
G01*
G75*
G02Y79422J-4100*
G01*
G75*
G02X74669Y80484I0J4100*
G01*
X72464Y78280*
Y73346*
X73391Y74274*
G75*
G02X77422Y77622I4030J-752*
G01*
G75*
G02Y69422J-4100*
G01*
G75*
G02X74864Y70318J4100*
G01*
Y66726*
G75*
G02X77422Y67622I2558J-3204*
G01*
G75*
G02X79572Y60031J-4100*
G01*
Y24976*
G75*
G02X82564Y17472I842J-4013*
G01*
Y14454*
G75*
G02X84403Y10015I-2151J-3492*
G01*
X86304Y8113*
X87466*
G75*
G02X91901Y14784I2948J2850*
G01*
X93964Y16846*
Y18912*
G75*
G02X86593Y22450I-3550J2052*
G01*
X86255Y22789*
G75*
G02X85772Y23955I1167J1167*
G01*
Y59769*
G75*
G02X87422Y67622I1650J3753*
G01*
G75*
G02X91164Y65197J-4100*
G01*
Y71847*
G75*
G02X87422Y69422I-3742J1675*
G01*
G75*
G02Y77622J4100*
G01*
G75*
G02X91164Y75197J-4100*
G01*
Y81847*
G75*
G02X87422Y79422I-3742J1675*
G01*
G75*
G02Y87622J4100*
G01*
G75*
G02X91164Y85197J-4100*
G01*
Y91847*
G75*
G02X87422Y89422I-3742J1675*
G01*
G75*
G02Y97622J4100*
G01*
G75*
G02X91164Y95197J-4100*
G01*
Y101847*
G75*
G02X86473Y99533I-3743J1676*
G01*
X83983Y97043*
G75*
G02X82463Y96413I-1520J1520*
G01*
X80329*
G75*
G02X77422Y89422I-2907J-2891*
G01*
G75*
G02X74514Y96413J4100*
G01*
X61563*
G75*
G02X60164Y95013I-3550J2150*
G01*
Y25056*
G75*
G02X64514Y20963I250J-4093*
G01*
G75*
G02X56314I-4100*
G01*
G75*
G02X56426Y21914I4100*
G01*
G75*
G02X55864Y23363I1588J1449*
G01*
Y95013*
G75*
G02X53864Y98563I2150J3550*
G01*
G75*
G02X61563Y100713I4150*
G01*
X74435*
G75*
G02X77422Y107622I2987J2809*
G01*
G75*
G02X80408Y100713J-4100*
G01*
X81572*
X83433Y102574*
G75*
G02X91164Y105197I3989J948*
G01*
Y109480*
X90167Y110477*
G75*
G02X87422Y109422I-2745J3045*
G01*
G75*
G02Y117622J4100*
G01*
G75*
G02X91512Y113798J-4100*
G01*
X93980Y111330*
G75*
G02X94464Y110163I-1167J-1167*
G01*
Y29246*
X96780Y26930*
G75*
G02X97264Y25763I-1167J-1167*
G01*
Y23587*
G75*
G02X98764Y24716I3150J-2624*
G01*
Y120680*
X97571Y121872*
X91175*
G75*
G02X84276Y120892I-3753J1650*
G01*
X80052Y116667*
G75*
G02X77422Y109422I-2630J-3145*
G01*
G75*
G02X73669Y111872J4100*
G01*
X48297*
X47664Y111239*
Y32846*
X51580Y28930*
G75*
G02X52064Y27763I-1167J-1167*
G01*
Y24716*
G75*
G02X54514Y20963I-1650J-3753*
G01*
G75*
G02X47264Y18339I-4100*
G01*
Y16846*
X49224Y14887*
G75*
G02X54514Y10963I1190J-3924*
G01*
X56314*
G37*
X226314Y20963D02*
G36*
G75*
G02X234514I4100D01*
G01*
X236687*
G75*
G02X261167Y23617I12900J-4764*
G01*
Y42563*
X256064*
G75*
G02X247964I-4050*
G01*
X246237*
Y40336*
G75*
G02X245754Y39170I-1650J0*
G01*
X237980Y31396*
G75*
G02X236814Y30913I-1167J1167*
G01*
X227097*
X222064Y25880*
Y24716*
G75*
G02X224514Y20963I-1650J-3753*
G01*
X226314*
G37*
X247964Y42563D02*
G36*
G75*
G02X256064I4050D01*
G01*
X261167*
Y63522*
X258587*
G75*
G02X254587Y59522I-4000*
G01*
G75*
G02X250587Y63522J4000*
G01*
X248687*
G75*
G02X246237Y59769I-4100*
G01*
Y42563*
X247964*
G37*
X250587Y63522D02*
G36*
G75*
G02X254587Y67522I4000D01*
G01*
G75*
G02X258587Y63522J-4000*
G01*
X261167*
Y73522*
X258687*
G75*
G02X254587Y69422I-4100*
G01*
G75*
G02X250487Y73522J4100*
G01*
X248687*
G75*
G02X244587Y69422I-4100*
G01*
G75*
G02X241281Y71097J4100*
G01*
X239664Y69480*
Y39763*
G75*
G02X239180Y38596I-1650J0*
G01*
X235580Y34996*
G75*
G02X234414Y34513I-1167J1167*
G01*
X227897*
X227597Y34213*
X236130*
X242937Y41020*
Y59769*
G75*
G02X244587Y67622I1650J3753*
G01*
G75*
G02X248687Y63522J-4100*
G01*
X250587*
G37*
X250487Y73522D02*
G36*
G75*
G02X254587Y77622I4100D01*
G01*
G75*
G02X258687Y73522J-4100*
G01*
X261167*
Y113522*
X258687*
G75*
G02X254587Y109422I-4100*
G01*
G75*
G02X250487Y113522J4100*
G01*
X248687*
G75*
G02X244587Y109422I-4100*
G01*
G75*
G02X241457Y110873J4100*
G01*
X215664Y85080*
Y62963*
G75*
G02X215180Y61796I-1650J0*
G01*
X187980Y34596*
G75*
G02X186814Y34113I-1167J1167*
G01*
X178297*
X172064Y27880*
Y24716*
G75*
G02X173564Y23587I-1650J-3753*
G01*
Y26163*
G75*
G02X174047Y27330I1650J0*
G01*
X178047Y31330*
G75*
G02X179214Y31813I1167J-1167*
G01*
X187730*
X217164Y61246*
Y82563*
G75*
G02X217647Y83730I1650J0*
G01*
X238606Y104689*
G75*
G02X239773Y105172I1167J-1167*
G01*
X240834*
G75*
G02X244587Y107622I3753J-1650*
G01*
G75*
G02X247008Y100213J-4100*
G01*
X248944*
X250766Y102035*
G75*
G02X254587Y107622I3821J1487*
G01*
G75*
G02Y99422J-4100*
G01*
G75*
G02X253100Y99701I0J4100*
G01*
X250794Y97396*
G75*
G02X249628Y96913I-1167J1167*
G01*
X246892*
G75*
G02X247476Y90613I-2305J-3391*
G01*
X248530*
X250578Y92661*
G75*
G02X254587Y97622I4009J861*
G01*
G75*
G02Y89422J-4100*
G01*
G75*
G02X252549Y89965J4100*
G01*
X250380Y87796*
G75*
G02X249214Y87313I-1167J1167*
G01*
X246149*
G75*
G02X247008Y80213I-1562J-3791*
G01*
X247730*
X250520Y83003*
G75*
G02X254587Y87622I4067J519*
G01*
G75*
G02Y79422J-4100*
G01*
G75*
G02X252302Y80118J4100*
G01*
X249580Y77396*
G75*
G02X248414Y76913I-1167J1167*
G01*
X246892*
G75*
G02X248687Y73522I-2305J-3391*
G01*
X250487*
G37*
Y113522D02*
G36*
G75*
G02X254587Y117622I4100D01*
G01*
G75*
G02X258687Y113522J-4100*
G01*
X261167*
Y137768*
X258408Y135009*
G75*
G02X250834Y131872I-3821J-1487*
G01*
X250655*
G75*
G02X249488Y132356I0J1650*
G01*
X248672Y133171*
G75*
G02X242811Y129827I-4085J351*
G01*
X203664Y90680*
Y80163*
G75*
G02X203180Y78996I-1650J0*
G01*
X157664Y33480*
Y24004*
G75*
G02X158764Y24716I2750J-3041*
G01*
Y30163*
G75*
G02X159247Y31330I1650J0*
G01*
X182447Y54530*
G75*
G02X183614Y55013I1167J-1167*
G01*
X186130*
X205164Y74046*
Y87763*
G75*
G02X205647Y88930I1650J0*
G01*
X240495Y123778*
G75*
G02X244587Y127622I4092J-256*
G01*
G75*
G02X247008Y120213J-4100*
G01*
X249330*
X250883Y121765*
G75*
G02X254587Y127622I3704J1757*
G01*
G75*
G02Y119422J-4100*
G01*
G75*
G02X253386Y119602I0J4100*
G01*
X251180Y117396*
G75*
G02X250014Y116913I-1167J1167*
G01*
X246892*
G75*
G02X248687Y113522I-2305J-3391*
G01*
X250487*
G37*
X44364Y32946D02*
Y111922D01*
G75*
G02X44847Y113089I1650J0*
G01*
X46447Y114689*
G75*
G02X47614Y115172I1167J-1167*
G01*
X58203*
G75*
G02X56664Y117763I1411J2591*
G01*
G75*
G02X62059Y119413I2950*
G01*
X78130*
X78217Y119500*
G75*
G02X73669Y121872I-796J4022*
G01*
X43497*
X36064Y114439*
Y41246*
X44364Y32946*
G36*
Y111922*
G75*
G02X44847Y113089I1650J0*
G01*
X46447Y114689*
G75*
G02X47614Y115172I1167J-1167*
G01*
X58203*
G75*
G02X56664Y117763I1411J2591*
G01*
G75*
G02X62059Y119413I2950*
G01*
X78130*
X78217Y119500*
G75*
G02X73669Y121872I-796J4022*
G01*
X43497*
X36064Y114439*
Y41246*
X44364Y32946*
G37*
X47264Y23587D02*
G75*
G02X48764Y24716I3150J-2624D01*
G01*
Y27080*
X47264Y28580*
Y23587*
G36*
G75*
G02X48764Y24716I3150J-2624*
G01*
Y27080*
X47264Y28580*
Y23587*
G37*
X61024Y115172D02*
X73669D01*
G75*
G02X74244Y116113I3753J-1649*
G01*
X62059*
G75*
G02X61024Y115172I-2445J1650*
G01*
G36*
X73669*
G75*
G02X74244Y116113I3753J-1649*
G01*
X62059*
G75*
G02X61024Y115172I-2445J1650*
G01*
G37*
X74864Y60318D02*
Y25646D01*
X75272Y25239*
Y60031*
G75*
G02X74864Y60318I2148J3491*
G01*
G36*
Y25646*
X75272Y25239*
Y60031*
G75*
G02X74864Y60318I2148J3491*
G01*
G37*
X76464Y203014D02*
Y195646D01*
X88697Y183413*
X91230*
X83247Y191396*
G75*
G02X82764Y192563I1167J1167*
G01*
Y200753*
G75*
G02X76464Y203014I-2350J3360*
G01*
G36*
Y195646*
X88697Y183413*
X91230*
X83247Y191396*
G75*
G02X82764Y192563I1167J1167*
G01*
Y200753*
G75*
G02X76464Y203014I-2350J3360*
G01*
G37*
X89072Y24837D02*
G75*
G02X93964Y23014I1342J-3874D01*
G01*
Y25080*
X91647Y27396*
G75*
G02X91164Y28563I1167J1167*
G01*
Y61847*
G75*
G02X89072Y59769I-3742J1675*
G01*
Y24837*
G36*
G75*
G02X93964Y23014I1342J-3874*
G01*
Y25080*
X91647Y27396*
G75*
G02X91164Y28563I1167J1167*
G01*
Y61847*
G75*
G02X89072Y59769I-3742J1675*
G01*
Y24837*
G37*
X93361Y8113D02*
X97466D01*
G75*
G02X101901Y14784I2948J2850*
G01*
X104364Y17246*
Y19864*
G75*
G02X97264Y18339I-3950J1099*
G01*
Y16163*
G75*
G02X96780Y14996I-1650J0*
G01*
X94235Y12450*
G75*
G02X93361Y8113I-3821J-1487*
G01*
G36*
X97466*
G75*
G02X101901Y14784I2948J2850*
G01*
X104364Y17246*
Y19864*
G75*
G02X97264Y18339I-3950J1099*
G01*
Y16163*
G75*
G02X96780Y14996I-1650J0*
G01*
X94235Y12450*
G75*
G02X93361Y8113I-3821J-1487*
G01*
G37*
X122064Y24716D02*
G75*
G02X124364Y22062I-1650J-3753D01*
G01*
Y27763*
G75*
G02X124847Y28930I1650J0*
G01*
X134764Y38846*
Y41763*
G75*
G02X135247Y42930I1650J0*
G01*
X186364Y94046*
Y105363*
G75*
G02X186847Y106530I1650J0*
G01*
X226047Y145730*
G75*
G02X227214Y146213I1167J-1167*
G01*
X229330*
X237806Y154689*
G75*
G02X238973Y155172I1167J-1167*
G01*
X240834*
G75*
G02X244587Y157622I3753J-1650*
G01*
G75*
G02Y149422J-4100*
G01*
G75*
G02X240834Y151872J4100*
G01*
X239656*
X231180Y143396*
G75*
G02X230014Y142913I-1167J1167*
G01*
X227897*
X189664Y104680*
Y93363*
G75*
G02X189180Y92196I-1650J0*
G01*
X138064Y41080*
Y38163*
G75*
G02X137580Y36996I-1650J0*
G01*
X127664Y27080*
Y24004*
G75*
G02X134514Y20963I2750J-3041*
G01*
G75*
G02X127664Y17922I-4100*
G01*
Y16563*
G75*
G02X127180Y15396I-1650J0*
G01*
X124235Y12450*
G75*
G02X123361Y8113I-3821J-1487*
G01*
X125773*
X126761Y9101*
G75*
G02X126314Y10963I3653J1862*
G01*
G75*
G02X134514I4100*
G01*
G75*
G02X134403Y10015I-4100J-1*
G01*
X136304Y8113*
X137466*
G75*
G02X142180Y14663I2948J2850*
G01*
X143964Y16446*
Y18912*
G75*
G02X136314Y20963I-3550J2051*
G01*
G75*
G02X138764Y24716I4100*
G01*
Y39363*
G75*
G02X139247Y40530I1650J0*
G01*
X190364Y91646*
Y100963*
G75*
G02X190847Y102130I1650J0*
G01*
X233406Y144689*
G75*
G02X234573Y145172I1167J-1167*
G01*
X240834*
G75*
G02X244587Y147622I3753J-1650*
G01*
G75*
G02X247830Y141013J-4100*
G01*
X249744*
X250766Y142035*
G75*
G02X258364Y145118I3821J1487*
G01*
Y151926*
G75*
G02X254587Y149422I-3777J1596*
G01*
G75*
G02X251756Y156487J4100*
G01*
X250130Y158113*
X237497*
X186064Y106680*
Y96563*
G75*
G02X185580Y95396I-1650J0*
G01*
X122064Y31880*
Y24716*
G36*
G75*
G02X124364Y22062I-1650J-3753*
G01*
Y27763*
G75*
G02X124847Y28930I1650J0*
G01*
X134764Y38846*
Y41763*
G75*
G02X135247Y42930I1650J0*
G01*
X186364Y94046*
Y105363*
G75*
G02X186847Y106530I1650J0*
G01*
X226047Y145730*
G75*
G02X227214Y146213I1167J-1167*
G01*
X229330*
X237806Y154689*
G75*
G02X238973Y155172I1167J-1167*
G01*
X240834*
G75*
G02X244587Y157622I3753J-1650*
G01*
G75*
G02Y149422J-4100*
G01*
G75*
G02X240834Y151872J4100*
G01*
X239656*
X231180Y143396*
G75*
G02X230014Y142913I-1167J1167*
G01*
X227897*
X189664Y104680*
Y93363*
G75*
G02X189180Y92196I-1650J0*
G01*
X138064Y41080*
Y38163*
G75*
G02X137580Y36996I-1650J0*
G01*
X127664Y27080*
Y24004*
G75*
G02X134514Y20963I2750J-3041*
G01*
G75*
G02X127664Y17922I-4100*
G01*
Y16563*
G75*
G02X127180Y15396I-1650J0*
G01*
X124235Y12450*
G75*
G02X123361Y8113I-3821J-1487*
G01*
X125773*
X126761Y9101*
G75*
G02X126314Y10963I3653J1862*
G01*
G75*
G02X134514I4100*
G01*
G75*
G02X134403Y10015I-4100J-1*
G01*
X136304Y8113*
X137466*
G75*
G02X142180Y14663I2948J2850*
G01*
X143964Y16446*
Y18912*
G75*
G02X136314Y20963I-3550J2051*
G01*
G75*
G02X138764Y24716I4100*
G01*
Y39363*
G75*
G02X139247Y40530I1650J0*
G01*
X190364Y91646*
Y100963*
G75*
G02X190847Y102130I1650J0*
G01*
X233406Y144689*
G75*
G02X234573Y145172I1167J-1167*
G01*
X240834*
G75*
G02X244587Y147622I3753J-1650*
G01*
G75*
G02X247830Y141013J-4100*
G01*
X249744*
X250766Y142035*
G75*
G02X258364Y145118I3821J1487*
G01*
Y151926*
G75*
G02X254587Y149422I-3777J1596*
G01*
G75*
G02X251756Y156487J4100*
G01*
X250130Y158113*
X237497*
X186064Y106680*
Y96563*
G75*
G02X185580Y95396I-1650J0*
G01*
X122064Y31880*
Y24716*
G37*
X142064D02*
G75*
G02X143964Y23014I-1650J-3753D01*
G01*
Y37363*
G75*
G02X144447Y38530I1650J0*
G01*
X193164Y87246*
Y89780*
X142064Y38680*
Y24716*
G36*
G75*
G02X143964Y23014I-1650J-3753*
G01*
Y37363*
G75*
G02X144447Y38530I1650J0*
G01*
X193164Y87246*
Y89780*
X142064Y38680*
Y24716*
G37*
X143361Y8113D02*
X147466D01*
G75*
G02X151901Y14784I2948J2850*
G01*
X154364Y17246*
Y19864*
G75*
G02X147264Y18339I-3950J1099*
G01*
Y15763*
G75*
G02X146780Y14596I-1650J0*
G01*
X144337Y12153*
G75*
G02X143361Y8113I-3924J-1190*
G01*
G36*
X147466*
G75*
G02X151901Y14784I2948J2850*
G01*
X154364Y17246*
Y19864*
G75*
G02X147264Y18339I-3950J1099*
G01*
Y15763*
G75*
G02X146780Y14596I-1650J0*
G01*
X144337Y12153*
G75*
G02X143361Y8113I-3924J-1190*
G01*
G37*
X147264Y23587D02*
G75*
G02X148764Y24716I3150J-2624D01*
G01*
Y36963*
G75*
G02X149247Y38130I1650J0*
G01*
X196364Y85246*
Y85997*
G75*
G02X195980Y85396I-1550J566*
G01*
X147264Y36680*
Y23587*
G36*
G75*
G02X148764Y24716I3150J-2624*
G01*
Y36963*
G75*
G02X149247Y38130I1650J0*
G01*
X196364Y85246*
Y85997*
G75*
G02X195980Y85396I-1550J566*
G01*
X147264Y36680*
Y23587*
G37*
X152064Y24716D02*
G75*
G02X154364Y22062I-1650J-3753D01*
G01*
Y34163*
G75*
G02X154847Y35330I1650J0*
G01*
X200364Y80846*
Y91363*
G75*
G02X200847Y92530I1650J0*
G01*
X240660Y132343*
G75*
G02X241409Y136113I3927J1179*
G01*
X238297*
X199664Y97480*
Y84563*
G75*
G02X199180Y83396I-1650J0*
G01*
X152064Y36280*
Y24716*
G36*
G75*
G02X154364Y22062I-1650J-3753*
G01*
Y34163*
G75*
G02X154847Y35330I1650J0*
G01*
X200364Y80846*
Y91363*
G75*
G02X200847Y92530I1650J0*
G01*
X240660Y132343*
G75*
G02X241409Y136113I3927J1179*
G01*
X238297*
X199664Y97480*
Y84563*
G75*
G02X199180Y83396I-1650J0*
G01*
X152064Y36280*
Y24716*
G37*
X153361Y8113D02*
X157466D01*
G75*
G02X161901Y14784I2948J2850*
G01*
X164364Y17246*
Y19864*
G75*
G02X157664Y17922I-3950J1099*
G01*
Y16563*
G75*
G02X157180Y15396I-1650J0*
G01*
X154235Y12450*
G75*
G02X153361Y8113I-3821J-1487*
G01*
G36*
X157466*
G75*
G02X161901Y14784I2948J2850*
G01*
X164364Y17246*
Y19864*
G75*
G02X157664Y17922I-3950J1099*
G01*
Y16563*
G75*
G02X157180Y15396I-1650J0*
G01*
X154235Y12450*
G75*
G02X153361Y8113I-3821J-1487*
G01*
G37*
X162064Y24716D02*
G75*
G02X164364Y22062I-1650J-3753D01*
G01*
Y27763*
G75*
G02X164847Y28930I1650J0*
G01*
X182047Y46130*
G75*
G02X183214Y46613I1167J-1167*
G01*
X186530*
X209164Y69246*
Y87363*
G75*
G02X209239Y87854I1650J0*
G01*
X208464Y87080*
Y73363*
G75*
G02X207980Y72196I-1650J0*
G01*
X187980Y52196*
G75*
G02X186814Y51713I-1167J1167*
G01*
X184297*
X162064Y29480*
Y24716*
G36*
G75*
G02X164364Y22062I-1650J-3753*
G01*
Y27763*
G75*
G02X164847Y28930I1650J0*
G01*
X182047Y46130*
G75*
G02X183214Y46613I1167J-1167*
G01*
X186530*
X209164Y69246*
Y87363*
G75*
G02X209239Y87854I1650J0*
G01*
X208464Y87080*
Y73363*
G75*
G02X207980Y72196I-1650J0*
G01*
X187980Y52196*
G75*
G02X186814Y51713I-1167J1167*
G01*
X184297*
X162064Y29480*
Y24716*
G37*
X163361Y8113D02*
X167466D01*
G75*
G02X170946Y15028I2948J2850*
G01*
X173564Y17646*
Y18339*
G75*
G02X167664Y17922I-3150J2624*
G01*
Y16563*
G75*
G02X167180Y15396I-1650J0*
G01*
X164235Y12450*
G75*
G02X163361Y8113I-3821J-1487*
G01*
G36*
X167466*
G75*
G02X170946Y15028I2948J2850*
G01*
X173564Y17646*
Y18339*
G75*
G02X167664Y17922I-3150J2624*
G01*
Y16563*
G75*
G02X167180Y15396I-1650J0*
G01*
X164235Y12450*
G75*
G02X163361Y8113I-3821J-1487*
G01*
G37*
X167664Y24004D02*
G75*
G02X168764Y24716I2750J-3041D01*
G01*
Y28180*
X167664Y27080*
Y24004*
G36*
G75*
G02X168764Y24716I2750J-3041*
G01*
Y28180*
X167664Y27080*
Y24004*
G37*
X173361Y8113D02*
X175773D01*
X176761Y9101*
G75*
G02X178264Y14454I3653J1862*
G01*
Y17472*
G75*
G02X176864Y18912I2150J3491*
G01*
Y16963*
G75*
G02X176380Y15796I-1650J0*
G01*
X173824Y13239*
G75*
G02X173361Y8113I-3410J-2277*
G01*
G36*
X175773*
X176761Y9101*
G75*
G02X178264Y14454I3653J1862*
G01*
Y17472*
G75*
G02X176864Y18912I2150J3491*
G01*
Y16963*
G75*
G02X176380Y15796I-1650J0*
G01*
X173824Y13239*
G75*
G02X173361Y8113I-3410J-2277*
G01*
G37*
X176864Y23014D02*
G75*
G02X184514Y20963I3550J-2051D01*
G01*
G75*
G02X182564Y17472I-4100*
G01*
Y14454*
G75*
G02X184403Y10015I-2150J-3491*
G01*
X186304Y8113*
X187466*
G75*
G02X191604Y14887I2948J2850*
G01*
X193164Y16446*
Y17922*
G75*
G02X186314Y20963I-2750J3041*
G01*
G75*
G02X188764Y24716I4100*
G01*
Y27763*
G75*
G02X189006Y28623I1650*
G01*
G75*
G02X188414Y28513I-592J1540*
G01*
X179897*
X176864Y25480*
Y23014*
G36*
G75*
G02X184514Y20963I3550J-2051*
G01*
G75*
G02X182564Y17472I-4100*
G01*
Y14454*
G75*
G02X184403Y10015I-2150J-3491*
G01*
X186304Y8113*
X187466*
G75*
G02X191604Y14887I2948J2850*
G01*
X193164Y16446*
Y17922*
G75*
G02X186314Y20963I-2750J3041*
G01*
G75*
G02X188764Y24716I4100*
G01*
Y27763*
G75*
G02X189006Y28623I1650*
G01*
G75*
G02X188414Y28513I-592J1540*
G01*
X179897*
X176864Y25480*
Y23014*
G37*
X177997Y37413D02*
X186130D01*
X212364Y63646*
Y67997*
G75*
G02X211980Y67396I-1550J566*
G01*
X188380Y43796*
G75*
G02X187214Y43313I-1167J1167*
G01*
X183897*
X177997Y37413*
G36*
X186130*
X212364Y63646*
Y67997*
G75*
G02X211980Y67396I-1550J566*
G01*
X188380Y43796*
G75*
G02X187214Y43313I-1167J1167*
G01*
X183897*
X177997Y37413*
G37*
X192064Y24716D02*
G75*
G02X193164Y24004I-1650J-3753D01*
G01*
Y27363*
G75*
G02X193647Y28530I1650J0*
G01*
X223164Y58046*
Y58180*
X192064Y27080*
Y24716*
G36*
G75*
G02X193164Y24004I-1650J-3753*
G01*
Y27363*
G75*
G02X193647Y28530I1650J0*
G01*
X223164Y58046*
Y58180*
X192064Y27080*
Y24716*
G37*
X193361Y8113D02*
X197466D01*
G75*
G02X201901Y14784I2948J2850*
G01*
X203564Y16446*
Y18339*
G75*
G02X196464Y19864I-3150J2624*
G01*
Y15763*
G75*
G02X195980Y14596I-1650J0*
G01*
X194114Y12730*
G75*
G02X193361Y8113I-3700J-1767*
G01*
G36*
X197466*
G75*
G02X201901Y14784I2948J2850*
G01*
X203564Y16446*
Y18339*
G75*
G02X196464Y19864I-3150J2624*
G01*
Y15763*
G75*
G02X195980Y14596I-1650J0*
G01*
X194114Y12730*
G75*
G02X193361Y8113I-3700J-1767*
G01*
G37*
X193664Y99746D02*
X234447Y140530D01*
G75*
G02X235614Y141013I1167J-1167*
G01*
X241344*
G75*
G02X240834Y141872I3243J2509*
G01*
X235256*
X193664Y100280*
Y99746*
G36*
X234447Y140530*
G75*
G02X235614Y141013I1167J-1167*
G01*
X241344*
G75*
G02X240834Y141872I3243J2509*
G01*
X235256*
X193664Y100280*
Y99746*
G37*
X196464Y22062D02*
G75*
G02X198764Y24716I3950J-1099D01*
G01*
Y27763*
G75*
G02X199247Y28930I1650J0*
G01*
X227164Y56846*
Y75363*
G75*
G02Y75380I1642J8*
G01*
X226464Y74680*
Y57363*
G75*
G02X225980Y56196I-1650J0*
G01*
X196464Y26680*
Y22062*
G36*
G75*
G02X198764Y24716I3950J-1099*
G01*
Y27763*
G75*
G02X199247Y28930I1650J0*
G01*
X227164Y56846*
Y75363*
G75*
G02Y75380I1642J8*
G01*
X226464Y74680*
Y57363*
G75*
G02X225980Y56196I-1650J0*
G01*
X196464Y26680*
Y22062*
G37*
X202064Y24716D02*
G75*
G02X203564Y23587I-1650J-3753D01*
G01*
Y27763*
G75*
G02X204047Y28930I1650J0*
G01*
X221247Y46130*
G75*
G02X222414Y46613I1167J-1167*
G01*
X224930*
X229564Y51246*
Y54580*
X202064Y27080*
Y24716*
G36*
G75*
G02X203564Y23587I-1650J-3753*
G01*
Y27763*
G75*
G02X204047Y28930I1650J0*
G01*
X221247Y46130*
G75*
G02X222414Y46613I1167J-1167*
G01*
X224930*
X229564Y51246*
Y54580*
X202064Y27080*
Y24716*
G37*
X203361Y8113D02*
X207466D01*
G75*
G02X211901Y14784I2948J2850*
G01*
X213964Y16846*
Y18912*
G75*
G02X206864I-3550J2051*
G01*
Y15763*
G75*
G02X206380Y14596I-1650J0*
G01*
X204235Y12450*
G75*
G02X203361Y8113I-3821J-1487*
G01*
G36*
X207466*
G75*
G02X211901Y14784I2948J2850*
G01*
X213964Y16846*
Y18912*
G75*
G02X206864I-3550J2051*
G01*
Y15763*
G75*
G02X206380Y14596I-1650J0*
G01*
X204235Y12450*
G75*
G02X203361Y8113I-3821J-1487*
G01*
G37*
X206864Y23014D02*
G75*
G02X210364Y25063I3550J-2051D01*
G01*
Y30580*
X206864Y27080*
Y23014*
G36*
G75*
G02X210364Y25063I3550J-2051*
G01*
Y30580*
X206864Y27080*
Y23014*
G37*
X212464Y86329D02*
G75*
G02X212847Y86930I1550J-566D01*
G01*
X240606Y114689*
G75*
G02X240677Y114756I1169J-1160*
G01*
G75*
G02X240749Y114965I3907J-1234*
G01*
X212464Y86680*
Y86329*
G36*
G75*
G02X212847Y86930I1550J-566*
G01*
X240606Y114689*
G75*
G02X240677Y114756I1169J-1160*
G01*
G75*
G02X240749Y114965I3907J-1234*
G01*
X212464Y86680*
Y86329*
G37*
X213664Y23463D02*
G75*
G02X213964Y23014I-3251J-2499D01*
G01*
Y24563*
G75*
G02X214447Y25730I1650J0*
G01*
X226047Y37330*
G75*
G02X227214Y37813I1167J-1167*
G01*
X233730*
X236364Y40446*
Y69780*
X235664Y69080*
Y43763*
G75*
G02X235180Y42596I-1650J0*
G01*
X231180Y38596*
G75*
G02X230014Y38113I-1167J1167*
G01*
X220697*
X213664Y31080*
Y23463*
G36*
G75*
G02X213964Y23014I-3251J-2499*
G01*
Y24563*
G75*
G02X214447Y25730I1650J0*
G01*
X226047Y37330*
G75*
G02X227214Y37813I1167J-1167*
G01*
X233730*
X236364Y40446*
Y69780*
X235664Y69080*
Y43763*
G75*
G02X235180Y42596I-1650J0*
G01*
X231180Y38596*
G75*
G02X230014Y38113I-1167J1167*
G01*
X220697*
X213664Y31080*
Y23463*
G37*
X217264Y23587D02*
G75*
G02X218764Y24716I3150J-2624D01*
G01*
Y25380*
X217264Y23880*
Y23587*
G36*
G75*
G02X218764Y24716I3150J-2624*
G01*
Y25380*
X217264Y23880*
Y23587*
G37*
X221197Y41413D02*
X229330D01*
X232364Y44446*
Y49380*
X226780Y43796*
G75*
G02X225614Y43313I-1167J1167*
G01*
X223097*
X221197Y41413*
G36*
X229330*
X232364Y44446*
Y49380*
X226780Y43796*
G75*
G02X225614Y43313I-1167J1167*
G01*
X223097*
X221197Y41413*
G37*
X223664Y76546D02*
X240490Y93372D01*
G75*
G02X242282Y96913I4097J150*
G01*
X239497*
X223664Y81080*
Y76546*
G36*
X240490Y93372*
G75*
G02X242282Y96913I4097J150*
G01*
X239497*
X223664Y81080*
Y76546*
G37*
X230464Y72946D02*
X240520Y83003D01*
G75*
G02X240749Y84965I4066J520*
G01*
X230464Y74680*
Y72946*
G36*
X240520Y83003*
G75*
G02X240749Y84965I4066J520*
G01*
X230464Y74680*
Y72946*
G37*
X238797Y100213D02*
G75*
G02X238814I8J-1642D01*
G01*
X242166*
G75*
G02X240834Y101872I2421J3309*
G01*
X240456*
X238797Y100213*
G36*
G75*
G02X238814I8J-1642*
G01*
X242166*
G75*
G02X240834Y101872I2421J3309*
G01*
X240456*
X238797Y100213*
G37*
X241522Y120138D02*
G75*
G02X242014Y120213I491J-1575D01*
G01*
X242166*
G75*
G02X241852Y120468I2421J3307*
G01*
X241522Y120138*
G36*
G75*
G02X242014Y120213I491J-1575*
G01*
X242166*
G75*
G02X241852Y120468I2421J3307*
G01*
X241522Y120138*
G37*
X248797Y137713D02*
X251001Y135509D01*
G75*
G02X256074Y137343I3586J-1987*
G01*
X258364Y139632*
Y141926*
G75*
G02X253100Y139701I-3777J1596*
G01*
X251594Y138196*
G75*
G02X250428Y137713I-1167J1167*
G01*
X248797*
G36*
X251001Y135509*
G75*
G02X256074Y137343I3586J-1987*
G01*
X258364Y139632*
Y141926*
G75*
G02X253100Y139701I-3777J1596*
G01*
X251594Y138196*
G75*
G02X250428Y137713I-1167J1167*
G01*
X248797*
G37*
X254911Y221578D02*
G75*
G02X261167Y216159I-5324J-12465D01*
G01*
Y221578*
X254911*
G36*
G75*
G02X261167Y216159I-5324J-12465*
G01*
Y221578*
X254911*
G37*
X254951Y3537D02*
X261167D01*
Y8781*
G75*
G02X254951Y3537I-11579J7418*
G01*
G36*
X261167*
Y8781*
G75*
G02X254951Y3537I-11579J7418*
G01*
G37*
D02*
D21*
X24814Y162663D02*
Y174063D01*
Y183063D02*
Y192563D01*
X59614Y117763D02*
X78814D01*
X83614Y122563*
X86463*
X87422Y123522*
X70414Y214113D02*
X72464D01*
X74814Y211763*
Y194963*
X88014Y181763*
X179614*
X77422Y73522D02*
X74973D01*
X73214Y71763*
Y24963*
X75214Y22963*
Y15763*
X70414Y10963*
X77422Y83522D02*
X75373D01*
X70814Y78963*
Y21763*
X70414Y21363*
Y20963*
X77422Y113522D02*
X47614D01*
X46014Y111922*
Y32163*
X50414Y27763*
Y20963*
X77422Y123522D02*
X42814D01*
X34414Y115122*
Y40563*
X45614Y29363*
Y16163*
X50414Y11363*
Y10963*
X77422Y133522D02*
X28573D01*
X24814Y129763*
Y42963*
X40414Y27363*
Y20963*
X77422Y143522D02*
X25373D01*
X21614Y139763*
Y40163*
X35214Y26563*
Y16163*
X40414Y10963*
X80414Y214113D02*
X82064D01*
X84414Y211763*
Y192563*
X92414Y184563*
X158014*
X87422Y63522D02*
Y23955D01*
X90414Y20963*
X87422Y113522D02*
X89455D01*
X92814Y110163*
Y28563*
X95614Y25763*
Y16163*
X90414Y10963*
X87422Y123522D02*
X98255D01*
X100414Y121363*
Y20963*
X87422Y133522D02*
X103455D01*
X106014Y130963*
Y16563*
X100414Y10963*
X87422Y143522D02*
X105455D01*
X110014Y138963*
Y21363*
X110414Y20963*
X90414Y204113D02*
Y192963D01*
X110814Y193363D02*
X142414D01*
X145214Y196163*
Y208913*
X150414Y214113*
X120414Y204113D02*
X116014D01*
X110864Y198963*
X110814*
X106814Y194963*
Y190563*
X108414Y188963*
X167614*
X123214Y72963D02*
Y83963D01*
Y92963D02*
Y113522D01*
X140414Y10963D02*
X140814D01*
X145614Y15763*
Y37363*
X194814Y86563*
Y98563*
X235614Y139363*
X250428*
X254587Y143522*
X150414Y204113D02*
Y199363D01*
X154014Y195763*
X167214*
X175614Y187363*
X236014*
X246814Y176563*
X160414Y214113D02*
X161664D01*
X165614Y210163*
Y201763*
X176814Y190563*
X240814*
X260014Y171363*
Y138949*
X254587Y133522*
X190414Y10963D02*
Y11363D01*
X194814Y15763*
Y27363*
X224814Y57363*
Y75363*
X243787Y94336*
X244587*
Y93522*
X190414Y20963D02*
Y27763D01*
X222014Y59363*
Y81763*
X238814Y98563*
X249628*
X254587Y103522*
X244587Y63522D02*
Y40336D01*
X236814Y32563*
X226414*
X220414Y26563*
Y20963*
X244587Y73522D02*
X241373D01*
X238014Y70163*
Y39763*
X234414Y36163*
X227214*
X215614Y24563*
Y16163*
X210414Y10963*
X244587Y83522D02*
X243373D01*
X231214Y71363*
Y50563*
X225614Y44963*
X222414*
X205214Y27763*
Y15763*
X200414Y10963*
X244587Y103522D02*
X239773D01*
X218814Y82563*
Y60563*
X188414Y30163*
X179214*
X175214Y26163*
Y16963*
X170414Y12163*
Y10963*
X244587Y113522D02*
X241773D01*
X214014Y85763*
Y62963*
X186814Y35763*
X177614*
X170414Y28563*
Y20963*
X244587Y123522D02*
X242573D01*
X206814Y87763*
Y73363*
X186814Y53363*
X183614*
X160414Y30163*
Y20963*
X244587Y133522D02*
X244173D01*
X202014Y91363*
Y80163*
X156014Y34163*
Y16563*
X150414Y10963*
X244587Y143522D02*
X234573D01*
X192014Y100963*
Y90963*
X140414Y39363*
Y20963*
X244587Y153522D02*
X238973D01*
X230014Y144563*
X227214*
X188014Y105363*
Y93363*
X136414Y41763*
Y38163*
X126014Y27763*
Y16563*
X120414Y10963*
X250414Y170163D02*
X94363D01*
X60414Y204113*
X254587Y83522D02*
X253373D01*
X248414Y78563*
X242814*
X234014Y69763*
Y43763*
X230014Y39763*
X220014*
X212014Y31763*
Y23363*
X210414Y21763*
Y20963*
X254587Y93522D02*
X253773D01*
X249214Y88963*
X242414*
X228814Y75363*
Y56163*
X200414Y27763*
Y20963*
X254587Y123522D02*
Y123136D01*
X250014Y118563*
X242014*
X210814Y87363*
Y68563*
X187214Y44963*
X183214*
X166014Y27763*
Y16563*
X160414Y10963*
X254587Y133522D02*
X250655D01*
X246414Y137763*
X237614*
X198014Y98163*
Y84563*
X150414Y36963*
Y20963*
X254587Y153522D02*
Y155990D01*
X250814Y159763*
X236814*
X184414Y107363*
Y96563*
X120414Y32563*
Y20963*
D02*
D22*
X38164Y204113D02*
X36164D01*
X40414Y201863D02*
Y199863D01*
Y206363D02*
Y208363D01*
X42664Y204113D02*
X44664D01*
X118114Y160963D02*
X116114D01*
X118164Y204113D02*
X116164D01*
X120414Y158663D02*
Y156663D01*
Y163263D02*
Y165263D01*
Y201863D02*
Y199863D01*
Y206363D02*
Y208363D01*
X122664Y204113D02*
X124664D01*
X122714Y160963D02*
X124714D01*
X165987Y187337D02*
X164573Y185922D01*
X165987Y190589D02*
X164573Y192004D01*
X169240Y187337D02*
X170654Y185922D01*
X218164Y10963D02*
X216164D01*
X220414Y13213D02*
Y15213D01*
X222664Y10963D02*
X224664D01*
X249714Y42563D02*
X247714D01*
X252014Y40263D02*
Y38263D01*
Y44863D02*
Y46863D01*
X252337Y63522D02*
X250337D01*
X254314Y42563D02*
X256314D01*
X254587Y61272D02*
Y59272D01*
Y65772D02*
Y67772D01*
X256837Y63522D02*
X258837D01*
D02*
D28*
X24814Y153663D03*
Y162663D03*
Y174063D03*
Y183063D03*
X123214Y63963D03*
Y72963D03*
Y83963D03*
Y92963D03*
D02*
D29*
X58014Y98563D03*
X64414Y153663D03*
X116814Y44563D03*
X120414Y160963D03*
X167614Y188963D03*
X252014Y42563D03*
D02*
D75*
X24814Y192563D03*
X59614Y117763D03*
X90414Y192963D03*
X110814Y193363D03*
X123214Y113522D03*
X158014Y184563D03*
X179614Y181763D03*
X246814Y176563D03*
X250414Y170163D03*
D02*
D90*
X40414Y10963D03*
Y20963D03*
Y204113D03*
Y214113D03*
X50414Y10963D03*
Y20963D03*
Y204113D03*
Y214113D03*
X60414Y10963D03*
Y20963D03*
Y204113D03*
Y214113D03*
X70414Y10963D03*
Y20963D03*
Y204113D03*
Y214113D03*
X77422Y63522D03*
Y73522D03*
Y83522D03*
Y93522D03*
Y103522D03*
Y113522D03*
Y123522D03*
Y133522D03*
Y143522D03*
Y153522D03*
X80414Y10963D03*
Y20963D03*
Y204113D03*
Y214113D03*
X87422Y63522D03*
Y73522D03*
Y83522D03*
Y93522D03*
Y103522D03*
Y113522D03*
Y123522D03*
Y133522D03*
Y143522D03*
Y153522D03*
X90414Y10963D03*
Y20963D03*
Y204113D03*
Y214113D03*
X100414Y10963D03*
Y20963D03*
Y204113D03*
Y214113D03*
X110414Y10963D03*
Y20963D03*
Y204113D03*
Y214113D03*
X120414Y10963D03*
Y20963D03*
Y204113D03*
Y214113D03*
X130414Y10963D03*
Y20963D03*
Y204113D03*
Y214113D03*
X140414Y10963D03*
Y20963D03*
Y204113D03*
Y214113D03*
X150414Y10963D03*
Y20963D03*
Y204113D03*
Y214113D03*
X160414Y10963D03*
Y20963D03*
Y204113D03*
Y214113D03*
X170414Y10963D03*
Y20963D03*
Y204113D03*
Y214113D03*
X180414Y10963D03*
Y20963D03*
Y204113D03*
Y214113D03*
X190414Y10963D03*
Y20963D03*
Y204113D03*
Y214113D03*
X200414Y10963D03*
Y20963D03*
Y204113D03*
Y214113D03*
X210414Y10963D03*
Y20963D03*
Y204113D03*
Y214113D03*
X220414Y10963D03*
Y20963D03*
Y204113D03*
Y214113D03*
X230414Y10963D03*
Y20963D03*
Y204113D03*
Y214113D03*
X244587Y63522D03*
Y73522D03*
Y83522D03*
Y93522D03*
Y103522D03*
Y113522D03*
Y123522D03*
Y133522D03*
Y143522D03*
Y153522D03*
X254587Y63522D03*
Y73522D03*
Y83522D03*
Y93522D03*
Y103522D03*
Y113522D03*
Y123522D03*
Y133522D03*
Y143522D03*
Y153522D03*
D02*
D144*
X21241Y209113D03*
X249587D03*
D02*
D145*
X21241Y16199D03*
X249587D03*
D02*
D146*
X24814Y153663D02*
X64414D01*
X40414Y204113D02*
Y202163D01*
X46814Y195763*
X56814*
X78814Y173763*
X84814*
X97614Y160963*
X120414*
X58014Y98563D02*
Y23363D01*
X60414Y20963*
X58014Y98563D02*
X82463D01*
X87422Y103522*
X77422Y63522D02*
Y23955D01*
X80414Y20963*
Y10963D02*
Y20963D01*
X123214Y63963D02*
Y50963D01*
X116814Y44563*
X130414Y10963D02*
Y9713D01*
X126664Y5963*
X85414*
X80414Y10963*
X180414D02*
Y20963D01*
Y10963D02*
Y9713D01*
X176664Y5963*
X135414*
X130414Y10963*
X230414D02*
Y9713D01*
X226664Y5963*
X185414*
X180414Y10963*
X252014Y42563D02*
X237214Y27763D01*
X229214*
X225214Y23763*
Y16563*
X220414Y11763*
Y10963*
X254587Y63522D02*
Y45136D01*
X252014Y42563*
X0Y0D02*
M02*
